<svg width="32" height="32" viewBox="0 0 32 32" fill="none" xmlns="http://www.w3.org/2000/svg">
<g clip-path="url(#clip0_254_2708)">
<path d="M16.36 31H15.64V29H16.36V31ZM26.352 26.861L24.938 25.447L25.448 24.937L26.862 26.351L26.352 26.861ZM5.648 26.861L5.139 26.351L6.553 24.937L7.062 25.447L5.648 26.861ZM18.5 26.36C17.427 26.36 16.489 25.765 16 24.887C15.511 25.765 14.574 26.36 13.5 26.36C12.208 26.36 11.095 25.485 10.756 24.266C8.612 24.794 6.641 23.102 6.64 21C6.64 20.592 6.719 20.188 6.874 19.797C5.506 19.03 4.64 17.577 4.64 16C4.64 14.424 5.506 12.97 6.874 12.203C6.719 11.812 6.64 11.408 6.64 11C6.64 8.898 8.598 7.207 10.756 7.733C11.094 6.515 12.208 5.64 13.5 5.64C14.574 5.64 15.511 6.235 16 7.112C16.489 6.235 17.427 5.64 18.5 5.64C19.792 5.64 20.905 6.515 21.243 7.733C23.372 7.213 25.36 8.896 25.36 11C25.36 11.408 25.281 11.811 25.126 12.203C26.494 12.97 27.36 14.423 27.36 16C27.36 17.577 26.494 19.03 25.126 19.797C25.281 20.189 25.36 20.592 25.36 21C25.36 23.102 23.393 24.791 21.243 24.267C20.905 25.485 19.792 26.36 18.5 26.36ZM16.36 23.5C16.36 24.68 17.32 25.64 18.5 25.64C19.571 25.64 20.479 24.833 20.611 23.763C20.625 23.654 20.687 23.557 20.781 23.499C20.876 23.443 20.991 23.432 21.093 23.469C22.931 24.147 24.64 22.754 24.64 21C24.64 20.593 24.537 20.188 24.335 19.797C24.29 19.71 24.283 19.608 24.315 19.514C24.347 19.421 24.416 19.345 24.505 19.305C25.802 18.713 26.639 17.416 26.639 16C26.639 14.584 25.801 13.288 24.505 12.695C24.415 12.654 24.346 12.578 24.315 12.485C24.283 12.392 24.29 12.29 24.336 12.202C24.537 11.811 24.64 11.407 24.64 11C24.64 9.248 22.952 7.852 21.093 8.531C20.99 8.568 20.874 8.558 20.781 8.5C20.687 8.443 20.625 8.346 20.611 8.237C20.479 7.167 19.571 6.36 18.5 6.36C17.32 6.36 16.36 7.32 16.36 8.5V10H15.64V8.5C15.64 7.32 14.68 6.36 13.5 6.36C12.429 6.36 11.521 7.167 11.388 8.238C11.374 8.347 11.312 8.444 11.218 8.501C11.124 8.559 11.009 8.569 10.906 8.532C9.054 7.851 7.36 9.248 7.36 11C7.36 11.408 7.463 11.812 7.664 12.202C7.691 12.254 7.704 12.31 7.704 12.368C7.704 12.408 7.698 12.447 7.684 12.486C7.652 12.579 7.583 12.655 7.493 12.696C6.198 13.288 5.36 14.585 5.36 16C5.36 17.416 6.198 18.713 7.494 19.305C7.584 19.346 7.653 19.421 7.685 19.515C7.698 19.553 7.705 19.592 7.705 19.632C7.705 19.689 7.692 19.745 7.665 19.797C7.462 20.188 7.36 20.593 7.36 21C7.36 22.754 9.069 24.146 10.906 23.469C11.007 23.431 11.124 23.443 11.218 23.499C11.312 23.557 11.375 23.653 11.388 23.763C11.52 24.833 12.429 25.64 13.5 25.64C14.68 25.64 15.64 24.68 15.64 23.5V22H16.36V23.5ZM31 16.36H29V15.64H31V16.36ZM3 16.36H1V15.64H3V16.36ZM25.447 7.062L24.937 6.553L26.351 5.139L26.861 5.648L25.447 7.062ZM6.553 7.062L5.139 5.648L5.648 5.139L7.062 6.553L6.553 7.062ZM16.36 3H15.64V1H16.36V3Z" fill="black"/>
<path fill-rule="evenodd" clip-rule="evenodd" d="M16 18.6667C17.4728 18.6667 18.6667 17.4728 18.6667 16C18.6667 14.5272 17.4728 13.3333 16 13.3333C14.5272 13.3333 13.3333 14.5272 13.3333 16C13.3333 17.4728 14.5272 18.6667 16 18.6667ZM16 20C18.2091 20 20 18.2091 20 16C20 13.7909 18.2091 12 16 12C13.7909 12 12 13.7909 12 16C12 18.2091 13.7909 20 16 20Z" fill="#F16F39"/>
</g>
<defs>
<clipPath id="clip0_254_2708">
<rect width="32" height="32" fill="white"/>
</clipPath>
</defs>
</svg>
