<svg width="32" height="32" viewBox="0 0 32 32" fill="none" xmlns="http://www.w3.org/2000/svg">
<g clip-path="url(#clip0_55_18334)">
<path d="M25.5 5.36001H11V4.64001H25.5C28.731 4.64001 31.36 7.26801 31.36 10.5C31.36 13.732 28.731 16.36 25.5 16.36H21V15.64H25.5C28.334 15.64 30.64 13.334 30.64 10.5C30.64 7.66601 28.334 5.36001 25.5 5.36001ZM1.36001 9.00001H0.640015V8.50001C0.640015 6.78601 1.67201 5.23601 3.21501 4.54101C2.84801 4.11801 2.64101 3.57401 2.64101 3.00001C2.64101 1.69901 3.69901 0.640015 5.00001 0.640015C6.30101 0.640015 7.35901 1.69901 7.35901 3.00001C7.35901 3.57401 7.15101 4.11801 6.78501 4.54101C8.32801 5.23601 9.36001 6.78501 9.36001 8.50001V9.00001H8.64001V8.50001C8.64001 6.89501 7.55301 5.46202 5.99601 5.01701C5.86101 4.97801 5.76101 4.86401 5.73901 4.72501C5.71801 4.58501 5.78001 4.44701 5.89701 4.37001C6.36201 4.06401 6.64001 3.55201 6.64001 3.00001C6.64001 2.09601 5.90401 1.36001 5.00001 1.36001C4.09601 1.36001 3.36001 2.09601 3.36001 3.00001C3.36001 3.55201 3.63702 4.06401 4.10202 4.37001C4.22002 4.44701 4.28201 4.58501 4.26101 4.72501C4.23901 4.86401 4.13901 4.97801 4.00401 5.01701C2.44701 5.46202 1.36001 6.89401 1.36001 8.50001V9.00001ZM18.255 23.745L21.509 27L18.255 30.255L17.745 29.745L20.131 27.36H6.50001C3.26901 27.36 0.640015 24.731 0.640015 21.5C0.640015 18.269 3.26801 15.64 6.50001 15.64H11V16.36H6.50001C3.66601 16.36 1.36001 18.666 1.36001 21.5C1.36001 24.334 3.66601 26.64 6.50001 26.64H20.131L17.745 24.255L18.255 23.745Z" fill="black"/>
<path d="M28.2708 29.4507C29.2244 29.4507 30 28.6751 30 27.7215C30 26.768 29.2244 25.9924 28.2708 25.9924H25.7279C25.2791 25.9924 24.9142 25.6275 24.9142 25.1786C24.9142 24.7298 25.2791 24.3649 25.7279 24.3649H29.5423V23.4495H27.4584V22H26.5429V23.4495H25.7279C24.7756 23.4495 24 24.225 24 25.1786C24 26.1322 24.7743 26.9078 25.7279 26.9078H28.2708C28.7196 26.9078 29.0846 27.2727 29.0846 27.7215C29.0846 28.1704 28.7196 28.5353 28.2708 28.5353H24.4565V29.4507H26.5416V30.9002H27.4571V29.4507H28.2708Z" fill="black"/>
<path fill-rule="evenodd" clip-rule="evenodd" d="M15.85 18.463C17.2931 18.463 18.463 17.2931 18.463 15.85C18.463 14.4069 17.2931 13.237 15.85 13.237C14.4069 13.237 13.237 14.4069 13.237 15.85C13.237 17.2931 14.4069 18.463 15.85 18.463ZM15.85 20C18.142 20 20 18.142 20 15.85C20 13.558 18.142 11.7 15.85 11.7C13.558 11.7 11.7 13.558 11.7 15.85C11.7 18.142 13.558 20 15.85 20Z" fill="#F16F39"/>
</g>
<defs>
<clipPath id="clip0_55_18334">
<rect width="32" height="32" fill="white"/>
</clipPath>
</defs>
</svg>
