<svg width="60" height="60" viewBox="0 0 60 60" fill="none" xmlns="http://www.w3.org/2000/svg">
<g clip-path="url(#clip0_55_18037)">
<path d="M58.1248 58.8003H1.87483C1.5017 58.8003 1.19983 58.4984 1.19983 58.1253V52.5003C1.19983 52.1271 1.5017 51.8253 1.87483 51.8253H4.94983V46.8753C4.94983 46.5021 5.2517 46.2003 5.62483 46.2003H6.82483V25.0503H1.87483C1.58795 25.0503 1.33295 24.8703 1.23733 24.5984C1.14358 24.3284 1.22983 24.0265 1.45295 23.8484L29.578 1.3484C29.8255 1.1534 30.1742 1.1534 30.4217 1.3484L58.5467 23.8484C58.7717 24.0284 58.858 24.3284 58.7623 24.5984C58.6667 24.8703 58.4117 25.0503 58.1248 25.0503H53.1748V46.2003H54.3748C54.748 46.2003 55.0498 46.5021 55.0498 46.8753V51.8253H58.1248C58.498 51.8253 58.7998 52.1271 58.7998 52.5003V58.1253C58.7998 58.4984 58.498 58.8003 58.1248 58.8003ZM2.54983 57.4503H57.4498V53.1753H2.54983V57.4503ZM6.29983 51.8253H53.6998V47.5503H6.29983V51.8253ZM41.9248 46.2003H51.823V25.0503H41.9248V46.2003ZM19.4248 46.2003H40.5748V25.0503H19.4248V46.2003ZM8.17483 46.2003H18.0748V25.0503H8.17483V46.2003ZM52.4998 23.7003H56.2011L29.9998 2.73965L3.79858 23.7003H52.4998ZM47.5498 43.1253H46.1998V28.1253H47.5517L47.5498 43.1253ZM13.7998 43.1253H12.4498V28.1253H13.7998V43.1253Z" fill="#212529"/>
<path d="M28.3862 14.3251H32.1362C33.5424 14.3251 34.6862 15.4688 34.6862 16.8751C34.6862 18.2813 33.5424 19.4251 32.1362 19.4251H30.938V21.5626H29.5862V19.4251H26.5112V18.0751H32.1362C32.798 18.0751 33.3362 17.5369 33.3362 16.8751C33.3362 16.2132 32.798 15.6751 32.1362 15.6751H28.3862C26.9799 15.6751 25.8362 14.5313 25.8362 13.1251C25.8362 11.7188 26.9799 10.5751 28.3862 10.5751H29.5862V8.43756H30.9362V10.5751H34.0112V11.9251H28.3862C27.7243 11.9251 27.1862 12.4632 27.1862 13.1251C27.1862 13.7869 27.7243 14.3251 28.3862 14.3251Z" fill="#212529"/>
</g>
<defs>
<clipPath id="clip0_55_18037">
<rect width="60" height="60" fill="white"/>
</clipPath>
</defs>
</svg>
