<svg width="32" height="32" viewBox="0 0 32 32" fill="none" xmlns="http://www.w3.org/2000/svg">
<g clip-path="url(#clip0_243_2599)">
<path d="M17.64 21.499V22H18.36V21.499C18.36 20.7097 18.1409 19.9551 17.7539 19.3028C17.5897 19.4893 17.4118 19.6635 17.2218 19.8237C17.4901 20.3306 17.64 20.9029 17.64 21.499Z" fill="black"/>
<path d="M10.7768 19.8226C10.5082 20.3297 10.358 20.9025 10.358 21.499V22H9.64001V21.499C9.64001 20.7096 9.85893 19.9549 10.2459 19.3026C10.4097 19.4887 10.5872 19.6626 10.7768 19.8226Z" fill="black"/>
<path d="M11.9457 11.4401C12.2107 11.3206 12.4879 11.2235 12.775 11.1512C12.4774 10.9071 12.1455 10.7008 11.786 10.54C12.152 10.117 12.359 9.574 12.359 9C12.359 7.699 11.301 6.64 10 6.64C8.69901 6.64 7.64101 7.699 7.64101 9C7.64101 9.574 7.84801 10.118 8.21501 10.541C6.67202 11.236 5.64001 12.786 5.64001 14.5V15H6.36001V14.5C6.36001 12.894 7.44701 11.462 9.00301 11.017C9.13801 10.978 9.23901 10.864 9.26001 10.725C9.28101 10.586 9.22001 10.447 9.10201 10.37C8.63701 10.064 8.36001 9.552 8.36001 9C8.36001 8.096 9.09601 7.36 10 7.36C10.904 7.36 11.64 8.096 11.64 9C11.64 9.552 11.362 10.064 10.898 10.37C10.781 10.447 10.719 10.586 10.74 10.725C10.762 10.864 10.862 10.978 10.997 11.017C11.3377 11.1146 11.6562 11.2582 11.9457 11.4401Z" fill="black"/>
<path d="M15.225 11.1512C15.512 11.2234 15.7892 11.3205 16.054 11.44C16.3436 11.2581 16.6621 11.1146 17.003 11.017C17.138 10.978 17.238 10.864 17.26 10.725C17.282 10.586 17.219 10.447 17.102 10.37C16.637 10.064 16.36 9.552 16.36 9C16.36 8.096 17.095 7.36 18 7.36C18.905 7.36 19.64 8.096 19.64 9C19.64 9.552 19.362 10.064 18.897 10.37C18.78 10.448 18.719 10.586 18.74 10.725C18.761 10.864 18.861 10.978 18.997 11.017C20.553 11.462 21.64 12.895 21.64 14.5V15H22.36V14.5C22.36 12.786 21.328 11.236 19.785 10.541C20.152 10.117 20.36 9.574 20.36 9C20.36 7.699 19.302 6.64 18 6.64C16.699 6.64 15.641 7.699 15.641 9C15.641 9.574 15.848 10.117 16.214 10.54C15.8545 10.7008 15.5226 10.9071 15.225 11.1512Z" fill="black"/>
<path fill-rule="evenodd" clip-rule="evenodd" d="M23.188 23.697L30.745 31.255L31.255 30.745L23.697 23.188C26.062 20.695 27.36 17.447 27.36 14C27.36 6.633 21.367 0.639999 14 0.639999C6.63301 0.639999 0.640015 6.633 0.640015 14C0.640015 21.367 6.63301 27.36 14 27.36C17.447 27.36 20.695 26.062 23.188 23.697ZM1.36001 14C1.36001 7.03 7.03001 1.36 14 1.36C20.97 1.36 26.64 7.03 26.64 14C26.64 17.375 25.326 20.549 22.937 22.937C20.549 25.326 17.375 26.64 14 26.64C7.03001 26.64 1.36001 20.97 1.36001 14Z" fill="black"/>
<path d="M11.8713 18.5652C12.2072 18.3225 12.588 18.1343 13.002 18.016C13.137 17.978 13.238 17.864 13.259 17.725C13.28 17.586 13.219 17.447 13.101 17.37C12.636 17.064 12.359 16.553 12.359 16.001C12.359 15.097 13.095 14.361 13.999 14.361C14.903 14.361 15.639 15.097 15.639 16.001C15.639 16.553 15.362 17.064 14.897 17.37C14.78 17.447 14.718 17.585 14.739 17.725C14.761 17.864 14.861 17.978 14.996 18.016C15.4105 18.1344 15.7916 18.3229 16.1278 18.566C16.3144 18.4111 16.4838 18.2363 16.6327 18.0447C16.3726 17.8469 16.0886 17.6769 15.785 17.54C16.151 17.117 16.359 16.574 16.359 16C16.359 14.854 15.537 13.896 14.452 13.684C14.0747 13.6103 13.9204 13.6112 13.548 13.684C12.463 13.896 11.641 14.854 11.641 16C11.641 16.574 11.848 17.117 12.215 17.54C11.9113 17.6768 11.6273 17.8468 11.3672 18.0446C11.5159 18.2358 11.685 18.4105 11.8713 18.5652Z" fill="black"/>
<path d="M10.7768 19.8226C10.5872 19.6626 10.4097 19.4887 10.2459 19.3026C9.85893 19.9549 9.64001 20.7096 9.64001 21.499V22H10.358V21.499C10.358 20.9025 10.5082 20.3297 10.7768 19.8226Z" fill="black"/>
<path d="M17.7539 19.3028C17.5897 19.4893 17.4118 19.6635 17.2218 19.8237C17.4901 20.3306 17.64 20.9029 17.64 21.499V22H18.36V21.499C18.36 20.7097 18.1409 19.9551 17.7539 19.3028Z" fill="black"/>
<path fill-rule="evenodd" clip-rule="evenodd" d="M14 19.3333C15.8409 19.3333 17.3333 17.8409 17.3333 16C17.3333 14.1591 15.8409 12.6667 14 12.6667C12.1591 12.6667 10.6667 14.1591 10.6667 16C10.6667 17.8409 12.1591 19.3333 14 19.3333ZM14 21C16.7614 21 19 18.7614 19 16C19 13.2386 16.7614 11 14 11C11.2386 11 9 13.2386 9 16C9 18.7614 11.2386 21 14 21Z" fill="#F16F39"/>
</g>
<defs>
<clipPath id="clip0_243_2599">
<rect width="32" height="32" fill="white"/>
</clipPath>
</defs>
</svg>
