<svg width="61" height="60" viewBox="0 0 61 60" fill="none" xmlns="http://www.w3.org/2000/svg">
<g clip-path="url(#clip0_55_18055)">
<path d="M58.875 58.7997H2.625V57.4497H3.825V37.4997C3.825 37.1266 4.12688 36.8247 4.5 36.8247H15.075V35.6247C15.075 35.2516 15.3769 34.9497 15.75 34.9497H45.75C46.1231 34.9497 46.425 35.2516 46.425 35.6247V36.8247H57C57.3731 36.8247 57.675 37.1266 57.675 37.4997V57.4497H58.875V58.7997ZM46.425 57.4497H56.3231V38.1747H46.425V57.4497ZM16.425 57.4497H45.075V36.2997H16.425V57.4497ZM5.175 57.4497H15.075V38.1747H5.175V57.4497ZM52.05 56.2497H50.7V50.6247H52.0519L52.05 56.2497ZM38.925 56.2497H37.575V50.6247H38.9269L38.925 56.2497ZM31.425 56.2497H30.075V50.6247H31.425V56.2497ZM23.925 56.2497H22.575V50.6247H23.925V56.2497ZM10.8 56.2497H9.45V50.6247H10.8V56.2497ZM52.05 46.8747H50.7V41.2497H52.0519L52.05 46.8747ZM38.925 46.8747H37.575V41.2497H38.9269L38.925 46.8747ZM31.425 46.8747H30.075V41.2497H31.425V46.8747ZM23.925 46.8747H22.575V41.2497H23.925V46.8747ZM10.8 46.8747H9.45V41.2497H10.8V46.8747ZM42.675 31.8747H41.325V25.0497H20.175V31.8747H18.825V24.3747C18.825 18.026 23.8125 12.8191 30.075 12.4685V3.74971C30.075 3.37658 30.3769 3.07471 30.75 3.07471H36.375C36.7481 3.07471 37.05 3.37658 37.05 3.74971V7.49971C37.05 7.87283 36.7481 8.17471 36.375 8.17471H31.425V12.4685C37.6875 12.821 42.675 18.026 42.675 24.3747V31.8747ZM20.1975 23.6997H41.3044C40.9538 18.1816 36.3544 13.7997 30.75 13.7997C25.1456 13.7997 20.5462 18.1816 20.1975 23.6997ZM31.425 6.82471H35.7V4.42471H31.425V6.82471ZM37.05 31.8747H35.7V28.1247H37.0519L37.05 31.8747ZM31.425 31.8747H30.075V28.1247H31.425V31.8747ZM25.8 31.8747H24.45V28.1247H25.8V31.8747Z" fill="#212529"/>
</g>
<defs>
<clipPath id="clip0_55_18055">
<rect width="60" height="60" fill="white" transform="translate(0.75)"/>
</clipPath>
</defs>
</svg>
