<svg width="32" height="32" viewBox="0 0 32 32" fill="none" xmlns="http://www.w3.org/2000/svg">
<g clip-path="url(#clip0_276_15)">
<path d="M31 31.36H1.00001V30.64H4.64001V9.36001H1.00001C0.801015 9.36001 0.640015 9.19901 0.640015 9.00001V7.00001C0.640015 6.80101 0.801015 6.64001 1.00001 6.64001H2.64001V4.00001C2.64001 3.80101 2.80101 3.64001 3.00001 3.64001H6.93501L14.866 0.666015C14.907 0.649015 14.953 0.640015 15 0.640015H17C17.061 0.640015 17.117 0.655015 17.168 0.681015L29.085 6.64001H31C31.199 6.64001 31.36 6.80101 31.36 7.00001V9.00001C31.36 9.19901 31.199 9.36001 31 9.36001H27.36V15.64H28C28.199 15.64 28.36 15.801 28.36 16V18C28.36 18.199 28.199 18.36 28 18.36H26.36V20.639C38.2786 20.639 23.1088 20.639 25.64 20.639V18.36H24C23.801 18.36 23.64 18.199 23.64 18V16C23.64 15.801 23.801 15.64 24 15.64H24.64V9.36001H17.36V30.64H31V31.36ZM15.36 30.64H16.64V1.36001H15.36V21C15.36 21.199 15.199 21.36 15 21.36H7.00001C6.80101 21.36 6.64001 21.199 6.64001 21V9.36001H5.36001V30.64H6.64001V23C6.64001 22.801 6.80101 22.64 7.00001 22.64H15C15.199 22.64 15.36 22.801 15.36 23V30.64ZM7.36001 30.64H14.64V23.36H7.36001V30.64ZM7.36001 20.64H14.327L7.36001 10.189V20.64ZM7.67301 9.36001L14.64 19.811V9.36001H7.67301ZM24.36 17.64H27.639V16.36H24.36V17.64ZM25.36 15.64H26.639V9.36001H25.36V15.64ZM17.36 8.64001H30.64V7.36001H17.36V8.64001ZM1.36001 8.64001H14.64V7.36001H1.36001V8.64001ZM17.36 6.64001H27.474L17.36 1.58301V6.64001ZM7.36001 6.64001H14.64V1.52001L7.36001 4.25001V6.64001ZM3.36001 6.64001H6.64001V4.36001H3.36001V6.64001Z" fill="black"/>
<path fill-rule="evenodd" clip-rule="evenodd" d="M26 26.6667C27.4728 26.6667 28.6667 25.4728 28.6667 24C28.6667 22.5272 27.4728 21.3333 26 21.3333C24.5272 21.3333 23.3333 22.5272 23.3333 24C23.3333 25.4728 24.5272 26.6667 26 26.6667ZM26 28C28.2091 28 30 26.2091 30 24C30 21.7909 28.2091 20 26 20C23.7909 20 22 21.7909 22 24C22 26.2091 23.7909 28 26 28Z" fill="#F16F39"/>
</g>
<defs>
<clipPath id="clip0_276_15">
<rect width="32" height="32" fill="white"/>
</clipPath>
</defs>
</svg>
