<svg width="61" height="60" viewBox="0 0 61 60" fill="none" xmlns="http://www.w3.org/2000/svg">
<g clip-path="url(#clip0_55_18043)">
<path d="M58.3748 58.7997H2.12483V57.4497H8.94983V17.5497H2.12483C1.7517 17.5497 1.44983 17.2478 1.44983 16.8747V13.1247C1.44983 12.7516 1.7517 12.4497 2.12483 12.4497H5.19983V7.49971C5.19983 7.12658 5.5017 6.82471 5.87483 6.82471H13.253L28.1236 1.24846C28.2005 1.21658 28.2867 1.19971 28.3748 1.19971H32.1248C32.2392 1.19971 32.3442 1.22783 32.4398 1.27658L54.7842 12.4497H58.3748C58.748 12.4497 59.0498 12.7516 59.0498 13.1247V16.8747C59.0498 17.2478 58.748 17.5497 58.3748 17.5497H51.5498V29.3247H52.7498C53.123 29.3247 53.4248 29.6266 53.4248 29.9997V33.7497C53.4248 34.1228 53.123 34.4247 52.7498 34.4247H49.6748V38.6978H58.3748C58.748 38.6978 59.0498 38.9997 59.0498 39.3728V48.7478C59.0498 49.121 58.748 49.4228 58.3748 49.4228H39.6248C39.2517 49.4228 38.9498 49.121 38.9498 48.7478V39.3728C38.9498 38.9997 39.2517 38.6978 39.6248 38.6978H48.3248V34.4247H45.2498C44.8767 34.4247 44.5748 34.1228 44.5748 33.7497V29.9997C44.5748 29.6266 44.8767 29.3247 45.2498 29.3247H46.4498V17.5497H32.7998V57.4497H58.3748V58.7997ZM29.0498 57.4497H31.4498V2.54971H29.0498V39.3747C29.0498 39.7478 28.748 40.0497 28.3748 40.0497H13.3748C13.0017 40.0497 12.6998 39.7478 12.6998 39.3747V17.5497H10.2998V57.4497H12.6998V43.1247C12.6998 42.7516 13.0017 42.4497 13.3748 42.4497H28.3748C28.748 42.4497 29.0498 42.7516 29.0498 43.1247V57.4497ZM14.0498 57.4497H27.6998V43.7997H14.0498V57.4497ZM40.2998 48.0747H57.698V40.0497H40.2998V48.0747ZM14.0498 38.6997H27.113L14.0498 19.1041V38.6997ZM14.6367 17.5497L27.6998 37.1453V17.5497H14.6367ZM45.9248 33.0747H52.073V30.6747H45.9248V33.0747ZM47.7998 29.3247H50.198V17.5497H47.7998V29.3247ZM32.7998 16.1997H57.6998V13.7997H32.7998V16.1997ZM2.79983 16.1997H27.6998V13.7997H2.79983V16.1997ZM32.7998 12.4497H51.7636L32.7998 2.96783V12.4497ZM14.0498 12.4497H27.6998V2.84971L14.0498 7.96846V12.4497ZM6.54983 12.4497H12.6998V8.17471H6.54983V12.4497ZM55.2998 46.8747H53.9498V41.2497H55.3017L55.2998 46.8747ZM51.5498 46.8747H50.1998V41.2497H51.5517L51.5498 46.8747ZM47.7998 46.8747H46.4498V41.2497H47.8017L47.7998 46.8747ZM44.0498 46.8747H42.6998V41.2497H44.0517L44.0498 46.8747Z" fill="#212529"/>
</g>
<defs>
<clipPath id="clip0_55_18043">
<rect width="60" height="60" fill="white" transform="translate(0.25)"/>
</clipPath>
</defs>
</svg>
