<svg width="32" height="32" viewBox="0 0 32 32" fill="none" xmlns="http://www.w3.org/2000/svg">
<g clip-path="url(#clip0_268_3038)">
<path d="M31 31.36H1.00001C0.801015 31.36 0.640015 31.199 0.640015 31V1H1.36001V15.64H5.66802C5.84201 14.509 6.82202 13.64 8.00102 13.64C9.30202 13.64 10.361 14.699 10.361 16C10.361 16.503 10.203 16.971 9.93301 17.354L14.647 22.068C15.266 21.632 16.164 21.523 16.877 21.808L23.71 9.976C23.066 9.554 22.64 8.826 22.64 8C22.64 6.699 23.699 5.64 25 5.64C26.179 5.64 27.159 6.509 27.333 7.64H31V8.36H27.333C27.159 9.491 26.179 10.36 25 10.36C24.781 10.36 24.57 10.33 24.369 10.275L17.496 22.176C18.023 22.61 18.36 23.266 18.36 24C18.36 25.302 17.301 26.36 16 26.36C14.699 26.36 13.64 25.301 13.64 24C13.64 23.461 13.821 22.964 14.126 22.566L9.43301 17.874C9.03601 18.179 8.53901 18.36 8.00001 18.36C6.82101 18.36 5.84101 17.491 5.66701 16.36H1.36001V30.64H31V31.36ZM16 22.36C15.096 22.36 14.36 23.095 14.36 24C14.36 24.905 15.096 25.64 16 25.64C16.904 25.64 17.64 24.905 17.64 24C17.64 23.095 16.904 22.36 16 22.36ZM6.36001 16C6.36001 16.904 7.09601 17.64 8.00001 17.64C8.90401 17.64 9.64001 16.904 9.64001 16C9.64001 15.096 8.90401 14.36 8.00001 14.36C7.09601 14.36 6.36001 15.096 6.36001 16ZM25 6.36C24.096 6.36 23.36 7.096 23.36 8C23.36 8.904 24.096 9.64 25 9.64C25.904 9.64 26.64 8.904 26.64 8C26.64 7.096 25.904 6.36 25 6.36Z" fill="black"/>
<path fill-rule="evenodd" clip-rule="evenodd" d="M16 25.5C16.8284 25.5 17.5 24.8284 17.5 24C17.5 23.1716 16.8284 22.5 16 22.5C15.1716 22.5 14.5 23.1716 14.5 24C14.5 24.8284 15.1716 25.5 16 25.5ZM16 26.5C17.3807 26.5 18.5 25.3807 18.5 24C18.5 22.6193 17.3807 21.5 16 21.5C14.6193 21.5 13.5 22.6193 13.5 24C13.5 25.3807 14.6193 26.5 16 26.5Z" fill="#F16F39"/>
<path fill-rule="evenodd" clip-rule="evenodd" d="M8 17.5C8.82843 17.5 9.5 16.8284 9.5 16C9.5 15.1716 8.82843 14.5 8 14.5C7.17157 14.5 6.5 15.1716 6.5 16C6.5 16.8284 7.17157 17.5 8 17.5ZM8 18.5C9.38071 18.5 10.5 17.3807 10.5 16C10.5 14.6193 9.38071 13.5 8 13.5C6.61929 13.5 5.5 14.6193 5.5 16C5.5 17.3807 6.61929 18.5 8 18.5Z" fill="#F16F39"/>
<path fill-rule="evenodd" clip-rule="evenodd" d="M25 9.5C25.8284 9.5 26.5 8.82843 26.5 8C26.5 7.17157 25.8284 6.5 25 6.5C24.1716 6.5 23.5 7.17157 23.5 8C23.5 8.82843 24.1716 9.5 25 9.5ZM25 10.5C26.3807 10.5 27.5 9.38071 27.5 8C27.5 6.61929 26.3807 5.5 25 5.5C23.6193 5.5 22.5 6.61929 22.5 8C22.5 9.38071 23.6193 10.5 25 10.5Z" fill="#F16F39"/>
</g>
<defs>
<clipPath id="clip0_268_3038">
<rect width="32" height="32" fill="white"/>
</clipPath>
</defs>
</svg>
