<svg width="32" height="32" viewBox="0 0 32 32" fill="none" xmlns="http://www.w3.org/2000/svg">
<g clip-path="url(#clip0_267_3005)">
<path d="M15 31.36C14.908 31.36 14.818 31.325 14.749 31.257C14.641 31.153 14.61 30.99 14.671 30.853L16.439 26.874C16.458 26.833 16.483 26.796 16.516 26.764L28.748 14.743C28.889 14.605 29.117 14.605 29.256 14.746L31.257 16.762C31.397 16.903 31.396 17.13 31.256 17.27L19.144 29.396C19.115 29.425 19.082 29.45 19.044 29.467L15.155 31.324C15.105 31.349 15.053 31.36 15 31.36ZM16.884 27.646L15.725 30.255L18.274 29.037L16.884 27.646ZM17.279 27.022L18.888 28.632L28.499 19.008L26.978 17.488L17.279 27.022ZM27.493 16.984L29.009 18.5L30.492 17.015L28.996 15.508L27.493 16.984ZM11 31.36H1.00001C0.801015 31.36 0.640015 31.199 0.640015 31V0.999999C0.640015 0.800999 0.801015 0.639999 1.00001 0.639999H19C19.096 0.639999 19.188 0.677999 19.255 0.744999L25.255 6.745C25.322 6.813 25.36 6.904 25.36 7V14H24.64V7.36H19C18.801 7.36 18.64 7.199 18.64 7V1.36H1.36001V30.64H11V31.36ZM19.36 6.64H24.131L19.36 1.869V6.64Z" fill="black"/>
<path fill-rule="evenodd" clip-rule="evenodd" d="M13 20C15.2091 20 17 18.2091 17 16C17 13.7909 15.2091 12 13 12C10.7909 12 9 13.7909 9 16C9 18.2091 10.7909 20 13 20ZM13 22C16.3137 22 19 19.3137 19 16C19 12.6863 16.3137 10 13 10C9.68629 10 7 12.6863 7 16C7 19.3137 9.68629 22 13 22Z" fill="#F16F39"/>
</g>
<defs>
<clipPath id="clip0_267_3005">
<rect width="32" height="32" fill="white"/>
</clipPath>
</defs>
</svg>
