<svg width="32" height="32" viewBox="0 0 32 32" fill="none" xmlns="http://www.w3.org/2000/svg">
<g clip-path="url(#clip0_55_17916)">
<path d="M6.00001 10.5C6.00001 10.776 5.77601 11 5.50001 11C5.22401 11 5.00001 10.776 5.00001 10.5C5.00001 10.224 5.22401 10 5.50001 10C5.77601 10 6.00001 10.224 6.00001 10.5ZM7.50001 8C7.22401 8 7.00001 8.224 7.00001 8.5C7.00001 8.776 7.22401 9 7.50001 9C7.77601 9 8.00001 8.776 8.00001 8.5C8.00001 8.224 7.77601 8 7.50001 8ZM10.5 8C10.224 8 10 8.224 10 8.5C10 8.776 10.224 9 10.5 9C10.776 9 11 8.776 11 8.5C11 8.224 10.776 8 10.5 8ZM6.50001 6C6.22401 6 6.00001 6.224 6.00001 6.5C6.00001 6.776 6.22401 7 6.50001 7C6.77601 7 7.00001 6.776 7.00001 6.5C7.00001 6.224 6.77601 6 6.50001 6ZM8.50001 5C8.22401 5 8.00001 5.224 8.00001 5.5C8.00001 5.776 8.22401 6 8.50001 6C8.77601 6 9.00001 5.776 9.00001 5.5C9.00001 5.224 8.77601 5 8.50001 5ZM11.5 5C11.224 5 11 5.224 11 5.5C11 5.776 11.224 6 11.5 6C11.776 6 12 5.776 12 5.5C12 5.224 11.776 5 11.5 5ZM13.36 30V24C13.36 23.801 13.199 23.64 13 23.64H11C10.801 23.64 10.64 23.801 10.64 24V30C10.64 30.199 10.801 30.36 11 30.36H13C13.199 30.36 13.36 30.199 13.36 30ZM11.36 24.36H12.64V29.639H11.36V24.36ZM9.36001 30V20C9.36001 19.801 9.19901 19.64 9.00001 19.64H7.00001C6.80101 19.64 6.64001 19.801 6.64001 20V30C6.64001 30.199 6.80101 30.36 7.00001 30.36H9.00001C9.19901 30.36 9.36001 30.199 9.36001 30ZM7.36001 20.36H8.64002V29.639H7.36001V20.36ZM5.36001 30V26C5.36001 25.801 5.19901 25.64 5.00001 25.64H3.00001C2.80101 25.64 2.64001 25.801 2.64001 26V30C2.64001 30.199 2.80101 30.36 3.00001 30.36H5.00001C5.19901 30.36 5.36001 30.199 5.36001 30ZM3.36001 26.36H4.64001V29.639H3.36001V26.36ZM30 13.64H18.36V11.36H22C22.096 11.36 22.188 11.322 22.255 11.255L27.15 6.36H30V5.64H27C26.904 5.64 26.812 5.678 26.745 5.745L21.85 10.64H18.36V2H17.64V14C17.64 14.199 17.801 14.36 18 14.36H30V13.64ZM14 13.64H2.36001V2H1.64001V14C1.64001 14.199 1.80101 14.36 2.00001 14.36H14V13.64Z" fill="black"/>
<path fill-rule="evenodd" clip-rule="evenodd" d="M24 28.1667C26.3012 28.1667 28.1667 26.3012 28.1667 24C28.1667 21.6988 26.3012 19.8333 24 19.8333C21.6988 19.8333 19.8333 21.6988 19.8333 24C19.8333 26.3012 21.6988 28.1667 24 28.1667ZM24 30.25C27.4518 30.25 30.25 27.4518 30.25 24C30.25 20.5482 27.4518 17.75 24 17.75C20.5482 17.75 17.75 20.5482 17.75 24C17.75 27.4518 20.5482 30.25 24 30.25Z" fill="#F16F39"/>
</g>
<defs>
<clipPath id="clip0_55_17916">
<rect width="32" height="32" fill="white"/>
</clipPath>
</defs>
</svg>
