<svg width="32" height="32" viewBox="0 0 32 32" fill="none" xmlns="http://www.w3.org/2000/svg">
<g clip-path="url(#clip0_258_2814)">
<path d="M31 2.64H18C17.801 2.64 17.64 2.801 17.64 3V11C17.64 11.199 17.801 11.36 18 11.36H31C31.199 11.36 31.36 11.199 31.36 11V3C31.36 2.801 31.199 2.64 31 2.64ZM30.64 4.597C30.025 4.458 29.542 3.974 29.403 3.36H30.64V4.597ZM28.676 10.64H20.324C20.167 9.628 19.372 8.833 18.36 8.676V5.323C19.372 5.166 20.167 4.371 20.324 3.359H28.676C28.833 4.371 29.628 5.166 30.64 5.323V8.676C29.628 8.833 28.833 9.629 28.676 10.64ZM19.597 3.36C19.458 3.975 18.975 4.459 18.36 4.597V3.36H19.597ZM18.36 9.403C18.975 9.542 19.458 10.026 19.597 10.64H18.36V9.403ZM29.403 10.64C29.542 10.025 30.025 9.541 30.64 9.403V10.64H29.403ZM18 12.64H31V13.36H18V12.64ZM18 14.64H31V15.36H18V14.64ZM24.497 4.64C23.195 4.64 22.137 5.699 22.137 7C22.137 8.301 23.196 9.36 24.497 9.36C25.798 9.36 26.857 8.301 26.857 7C26.857 5.699 25.799 4.64 24.497 4.64ZM24.497 8.64C23.593 8.64 22.857 7.904 22.857 7C22.857 6.096 23.592 5.36 24.497 5.36C25.402 5.36 26.137 6.096 26.137 7C26.137 7.904 25.401 8.64 24.497 8.64ZM7.36001 17H6.64001V9.009C6.64001 7.703 7.69901 6.64 9.00001 6.64H14.131L11.746 4.254L12.255 3.745L15.509 7L12.261 10.256L11.751 9.747L14.132 7.36H9.00001C8.09601 7.36 7.36001 8.1 7.36001 9.009V17ZM24.64 19H25.361V23C25.361 24.302 24.302 25.36 23.001 25.36H15.871L18.256 27.745L17.746 28.255L14.491 25L17.745 21.745L18.255 22.255L15.87 24.64H23C23.904 24.64 24.64 23.905 24.64 23V19Z" fill="black"/>
<path fill-rule="evenodd" clip-rule="evenodd" d="M7 28.3333C8.84095 28.3333 10.3333 26.8409 10.3333 25C10.3333 23.1591 8.84095 21.6667 7 21.6667C5.15905 21.6667 3.66667 23.1591 3.66667 25C3.66667 26.8409 5.15905 28.3333 7 28.3333ZM7 30C9.76142 30 12 27.7614 12 25C12 22.2386 9.76142 20 7 20C4.23858 20 2 22.2386 2 25C2 27.7614 4.23858 30 7 30Z" fill="#F16F39"/>
</g>
<defs>
<clipPath id="clip0_258_2814">
<rect width="32" height="32" fill="white"/>
</clipPath>
</defs>
</svg>
