<svg width="60" height="60" viewBox="0 0 60 60" fill="none" xmlns="http://www.w3.org/2000/svg">
<g clip-path="url(#clip0_94_9489)">
<path d="M47.2089 40.0666C52.8564 40.0666 57.4501 35.4785 57.4501 29.8347C57.4501 24.4666 53.2632 19.9741 47.9176 19.6085C47.5764 19.5841 47.3082 19.3103 47.2895 18.9691C46.9201 11.8628 41.0607 6.29783 33.9526 6.29783C28.7926 6.29783 24.0414 9.32783 21.8457 14.0172C21.692 14.3453 21.3057 14.4935 20.9776 14.3566C19.3576 13.691 17.6495 13.3535 15.902 13.3535C8.53887 13.3535 2.54824 19.3535 2.54824 26.7278C2.54824 33.4328 7.50574 39.1628 14.0776 40.0591C14.447 40.1078 14.7057 40.4491 14.6551 40.8185C14.6045 41.1878 14.2707 41.4635 13.8939 41.396C6.65637 40.4116 1.19824 34.1041 1.19824 26.7278C1.19824 18.6091 7.79449 12.0035 15.9001 12.0035C17.6139 12.0035 19.292 12.2978 20.9007 12.881C23.4245 8.04158 28.4795 4.94971 33.9489 4.94971C41.5801 4.94971 47.9026 10.7753 48.5926 18.3185C54.362 19.0085 58.7982 23.9585 58.7982 29.8366C58.8001 36.221 53.6007 41.4185 47.2089 41.4185C47.192 41.4185 47.0439 41.411 47.027 41.4091C46.6614 41.381 46.3295 41.066 46.3482 40.7003C46.3651 40.3403 46.6107 40.0535 46.967 40.0535C46.9726 40.0535 46.9782 40.0535 46.982 40.0535L47.2089 40.0666Z" fill="#212529"/>
<path d="M30.6752 45H29.3252V24.1294L19.2264 34.2282L18.2739 33.2719L30.0002 21.5457L41.7283 33.2719L40.7721 34.2282L30.6752 24.1294V45Z" fill="#212529"/>
<circle cx="30" cy="54.375" r="4.6875" stroke="#F16F39" stroke-width="1.875"/>
</g>
<defs>
<clipPath id="clip0_94_9489">
<rect width="60" height="60" fill="white"/>
</clipPath>
</defs>
</svg>
