<svg width="32" height="32" viewBox="0 0 32 32" fill="none" xmlns="http://www.w3.org/2000/svg">
<g clip-path="url(#clip0_55_17912)">
<path d="M25.676 24.64H22C21.096 24.64 20.36 23.905 20.36 23V19.36H26.5C29.18 19.36 31.36 17.179 31.36 14.5C31.36 11.821 29.18 9.64 26.5 9.64H26.354C26.164 4.645 22.041 0.639999 17 0.639999C13.515 0.639999 10.37 2.55 8.73901 5.64H7.50001C3.71701 5.64 0.640015 8.717 0.640015 12.5C0.640015 16.283 3.71701 19.36 7.50001 19.36H11.64V23C11.64 23.904 10.904 24.64 10 24.64H6.32301V25.36H10C11.301 25.36 12.36 24.301 12.36 23V19.36H15.64V25.662H16.36V19.36H19.64V23C19.64 24.302 20.699 25.36 22 25.36H25.676V24.64ZM1.36001 12.5C1.36001 9.114 4.11401 6.36 7.50001 6.36H8.95901C9.09601 6.36 9.22001 6.283 9.28101 6.161C10.758 3.2 13.715 1.36 17 1.36C21.764 1.36 25.64 5.236 25.64 10C25.64 10.199 25.801 10.36 26 10.36H26.5C28.783 10.36 30.64 12.217 30.64 14.5C30.64 16.783 28.784 18.64 26.5 18.64H7.50001C4.11401 18.64 1.36001 15.886 1.36001 12.5Z" fill="black"/>
<path fill-rule="evenodd" clip-rule="evenodd" d="M16 30.5C17.1046 30.5 18 29.6046 18 28.5C18 27.3954 17.1046 26.5 16 26.5C14.8954 26.5 14 27.3954 14 28.5C14 29.6046 14.8954 30.5 16 30.5ZM16 31.5C17.6569 31.5 19 30.1569 19 28.5C19 26.8431 17.6569 25.5 16 25.5C14.3431 25.5 13 26.8431 13 28.5C13 30.1569 14.3431 31.5 16 31.5Z" fill="#F16F39"/>
<path fill-rule="evenodd" clip-rule="evenodd" d="M4 27C5.10457 27 6 26.1046 6 25C6 23.8954 5.10457 23 4 23C2.89543 23 2 23.8954 2 25C2 26.1046 2.89543 27 4 27ZM4 28C5.65685 28 7 26.6569 7 25C7 23.3431 5.65685 22 4 22C2.34315 22 1 23.3431 1 25C1 26.6569 2.34315 28 4 28Z" fill="#F16F39"/>
<path fill-rule="evenodd" clip-rule="evenodd" d="M28 27C29.1046 27 30 26.1046 30 25C30 23.8954 29.1046 23 28 23C26.8954 23 26 23.8954 26 25C26 26.1046 26.8954 27 28 27ZM28 28C29.6569 28 31 26.6569 31 25C31 23.3431 29.6569 22 28 22C26.3431 22 25 23.3431 25 25C25 26.6569 26.3431 28 28 28Z" fill="#F16F39"/>
</g>
<defs>
<clipPath id="clip0_55_17912">
<rect width="32" height="32" fill="white"/>
</clipPath>
</defs>
</svg>
