<svg width="32" height="32" viewBox="0 0 32 32" fill="none" xmlns="http://www.w3.org/2000/svg">
<g clip-path="url(#clip0_55_17904)">
<path fill-rule="evenodd" clip-rule="evenodd" d="M12.5 31.36H19.5C19.699 31.36 19.86 31.199 19.86 31V28.86H23.5C25.904 28.86 27.86 26.904 27.86 24.5V19.86H31C31.199 19.86 31.36 19.699 31.36 19.5V12.5C31.36 12.301 31.199 12.14 31 12.14H27.86V8.34302H27.14V12.14H24C23.801 12.14 23.64 12.301 23.64 12.5V15.64H19.984C19.9946 15.7586 20 15.8787 20 16C20 16.1213 19.9946 16.2414 19.984 16.36H23.64V19.5C23.64 19.699 23.801 19.86 24 19.86H27.14V24.5C27.14 26.507 25.507 28.14 23.5 28.14H19.86V24C19.86 23.801 19.699 23.64 19.5 23.64H16.36V19.984C16.2414 19.9946 16.1213 20 16 20C15.8787 20 15.7586 19.9946 15.64 19.984V23.64H12.5C12.301 23.64 12.14 23.801 12.14 24V31C12.14 31.199 12.301 31.36 12.5 31.36ZM13.4375 19.0715C13.2532 18.9176 13.0829 18.7474 12.9289 18.5631L6.96201 24.53L7.47101 25.038L13.4375 19.0715ZM12.0161 16.361H8.50001C6.09601 16.361 4.14001 14.405 4.14001 12.001V8.36001H1.00001C0.801015 8.36001 0.640015 8.19901 0.640015 8.00001V1.00001C0.640015 0.801015 0.801015 0.640015 1.00001 0.640015H8.00001C8.19901 0.640015 8.36001 0.801015 8.36001 1.00001V4.14001H13.64V1.00001C13.64 0.872015 13.708 0.752015 13.82 0.688015C13.931 0.625015 14.069 0.625015 14.18 0.688015L20.18 4.15201C20.291 4.21601 20.36 4.33401 20.361 4.46301C20.361 4.59101 20.294 4.71001 20.183 4.77501L14.183 8.31101C14.073 8.37701 13.934 8.37801 13.822 8.31301C13.709 8.24901 13.64 8.12901 13.64 8.00001V4.86001H8.36001V8.00001C8.36001 8.19901 8.19901 8.36001 8.00001 8.36001H4.86001V12C4.86001 14.007 6.49301 15.64 8.50001 15.64H12.016C12.0054 15.7586 12 15.8787 12 16C12 16.1217 12.0054 16.2421 12.0161 16.361ZM19.14 30.64H12.86V24.36H19.14V30.64ZM30.639 19.14H24.36V12.86H30.639V19.14ZM7.64001 7.64001H1.36001V1.36001H7.64001V7.64001ZM14.36 7.37001V1.62401L19.285 4.46701L14.36 7.37001Z" fill="black"/>
<path fill-rule="evenodd" clip-rule="evenodd" d="M27.5 7.16667C28.9728 7.16667 30.1667 5.97276 30.1667 4.5C30.1667 3.02724 28.9728 1.83333 27.5 1.83333C26.0272 1.83333 24.8333 3.02724 24.8333 4.5C24.8333 5.97276 26.0272 7.16667 27.5 7.16667ZM27.5 8.5C29.7091 8.5 31.5 6.70914 31.5 4.5C31.5 2.29086 29.7091 0.5 27.5 0.5C25.2909 0.5 23.5 2.29086 23.5 4.5C23.5 6.70914 25.2909 8.5 27.5 8.5Z" fill="#F16F39"/>
<path fill-rule="evenodd" clip-rule="evenodd" d="M16 18.6667C17.4728 18.6667 18.6667 17.4728 18.6667 16C18.6667 14.5272 17.4728 13.3333 16 13.3333C14.5272 13.3333 13.3333 14.5272 13.3333 16C13.3333 17.4728 14.5272 18.6667 16 18.6667ZM16 20C18.2091 20 20 18.2091 20 16C20 13.7909 18.2091 12 16 12C13.7909 12 12 13.7909 12 16C12 18.2091 13.7909 20 16 20Z" fill="#F16F39"/>
<path fill-rule="evenodd" clip-rule="evenodd" d="M4.5 30.1667C5.97276 30.1667 7.16667 28.9728 7.16667 27.5C7.16667 26.0272 5.97276 24.8333 4.5 24.8333C3.02724 24.8333 1.83333 26.0272 1.83333 27.5C1.83333 28.9728 3.02724 30.1667 4.5 30.1667ZM4.5 31.5C6.70914 31.5 8.5 29.7091 8.5 27.5C8.5 25.2909 6.70914 23.5 4.5 23.5C2.29086 23.5 0.5 25.2909 0.5 27.5C0.5 29.7091 2.29086 31.5 4.5 31.5Z" fill="#F16F39"/>
</g>
<defs>
<clipPath id="clip0_55_17904">
<rect width="32" height="32" fill="white"/>
</clipPath>
</defs>
</svg>
