<svg width="32" height="32" viewBox="0 0 32 32" fill="none" xmlns="http://www.w3.org/2000/svg">
<g clip-path="url(#clip0_252_2691)">
<path d="M31.36 31H30.64C30.64 24.568 25.863 18.768 19.281 17.208C19.131 17.172 19.02 17.045 19.006 16.891C18.991 16.738 19.077 16.592 19.218 16.529C20.546 15.938 21.688 14.992 22.52 13.795L23.112 14.206C22.387 15.249 21.446 16.117 20.359 16.752C26.785 18.688 31.36 24.54 31.36 31ZM1.36001 31H0.640015C0.640015 24.54 5.21401 18.688 11.642 16.752C9.00801 15.213 7.35101 12.377 7.35101 9.287C7.35101 4.519 11.23 0.639999 15.999 0.639999C18.582 0.639999 21.009 1.781 22.658 3.77L22.103 4.23C20.593 2.406 18.368 1.36 16 1.36C11.628 1.36 8.07201 4.916 8.07201 9.287C8.07201 12.412 9.92101 15.255 12.783 16.528C12.924 16.591 13.009 16.737 12.995 16.89C12.981 17.044 12.87 17.171 12.72 17.207C6.13701 18.768 1.36001 24.568 1.36001 31ZM19 13.36C18.25 13.36 17.64 12.75 17.64 12C17.64 11.25 18.25 10.64 19 10.64C19.621 10.64 20.146 11.058 20.308 11.627C22.172 11.47 23.64 9.903 23.64 8V6H24.361V8C24.361 10.298 22.573 12.187 20.315 12.349C20.16 12.93 19.63 13.36 19 13.36ZM19 11.36C18.647 11.36 18.36 11.647 18.36 12C18.36 12.353 18.647 12.64 19 12.64C19.353 12.64 19.64 12.353 19.64 12C19.64 11.647 19.353 11.36 19 11.36Z" fill="black"/>
<path fill-rule="evenodd" clip-rule="evenodd" d="M16 29.3333C17.8409 29.3333 19.3333 27.8409 19.3333 26C19.3333 24.1591 17.8409 22.6667 16 22.6667C14.1591 22.6667 12.6667 24.1591 12.6667 26C12.6667 27.8409 14.1591 29.3333 16 29.3333ZM16 31C18.7614 31 21 28.7614 21 26C21 23.2386 18.7614 21 16 21C13.2386 21 11 23.2386 11 26C11 28.7614 13.2386 31 16 31Z" fill="#F16F39"/>
</g>
<defs>
<clipPath id="clip0_252_2691">
<rect width="32" height="32" fill="white"/>
</clipPath>
</defs>
</svg>
