<svg width="32" height="32" viewBox="0 0 32 32" fill="none" xmlns="http://www.w3.org/2000/svg">
<g clip-path="url(#clip0_268_3052)">
<path d="M26 28.36C24.269 28.36 22.839 27.044 22.659 25.36H10.341C10.161 27.044 8.73101 28.36 7.00001 28.36C5.26901 28.36 3.83901 27.044 3.65901 25.36H3.00001C1.69901 25.36 0.640015 24.301 0.640015 23V16C0.640015 15.932 0.659015 15.869 0.691015 15.815L4.73001 8.82C4.79401 8.709 4.91301 8.64 5.04201 8.64H12.641V4C12.641 3.801 12.802 3.64 13.001 3.64H31.001C31.2 3.64 31.361 3.801 31.361 4V25C31.361 25.199 31.2 25.36 31.001 25.36H29.342C29.161 27.044 27.731 28.36 26 28.36ZM26 22.36C24.544 22.36 23.36 23.544 23.36 25C23.36 26.456 24.544 27.64 26 27.64C27.456 27.64 28.64 26.456 28.64 25C28.64 23.544 27.456 22.36 26 22.36ZM7.00001 22.36C5.54401 22.36 4.36001 23.544 4.36001 25C4.36001 26.456 5.54401 27.64 7.00001 27.64C8.45601 27.64 9.64001 26.456 9.64001 25C9.64001 23.544 8.45601 22.36 7.00001 22.36ZM29.341 24.64H30.64V4.36H13.36V24.64H22.659C22.839 22.956 24.268 21.64 26 21.64C27.732 21.64 29.161 22.956 29.341 24.64ZM10.341 24.64H12.64V16.36H1.36001V23C1.36001 23.904 2.09601 24.64 3.00001 24.64H3.65901C3.83901 22.956 5.26901 21.64 7.00001 21.64C8.73101 21.64 10.161 22.956 10.341 24.64ZM10.36 15.64H12.64V9.36H10.36V15.64ZM1.62401 15.64H9.64001V9.36H5.25001L1.62401 15.64ZM11 18.36H9.00001V17.64H11V18.36Z" fill="black"/>
<path fill-rule="evenodd" clip-rule="evenodd" d="M25 12.4C26.3255 12.4 27.4 11.3255 27.4 10C27.4 8.67452 26.3255 7.6 25 7.6C23.6745 7.6 22.6 8.67452 22.6 10C22.6 11.3255 23.6745 12.4 25 12.4ZM25 14C27.2091 14 29 12.2091 29 10C29 7.79086 27.2091 6 25 6C22.7909 6 21 7.79086 21 10C21 12.2091 22.7909 14 25 14Z" fill="#F16F39"/>
</g>
<defs>
<clipPath id="clip0_268_3052">
<rect width="32" height="32" fill="white"/>
</clipPath>
</defs>
</svg>
