<svg width="32" height="32" viewBox="0 0 32 32" fill="none" xmlns="http://www.w3.org/2000/svg">
<g clip-path="url(#clip0_258_2809)">
<path d="M18 31.36H14C13.872 31.36 13.752 31.291 13.688 31.179L11.688 27.715C11.624 27.604 11.624 27.467 11.688 27.356L13.688 23.892C13.752 23.781 13.871 23.711 14 23.711H17.792L20.688 18.695C20.788 18.521 21.008 18.464 21.179 18.563C21.352 18.663 21.41 18.882 21.311 19.054L18.415 24.071L20.311 27.355C20.375 27.466 20.375 27.603 20.311 27.714L18.311 31.178C18.247 31.291 18.129 31.36 18 31.36ZM14.208 30.64H17.792L19.584 27.536L17.792 24.432H14.208L12.416 27.536L14.208 30.64ZM28 25.593H24C23.871 25.593 23.753 25.524 23.688 25.412L21.688 21.947C21.624 21.836 21.624 21.699 21.688 21.588L23.584 18.304L20.688 13.288C20.588 13.116 20.647 12.895 20.82 12.796C20.991 12.696 21.212 12.755 21.311 12.927L24.207 17.943H28C28.129 17.943 28.247 18.012 28.312 18.124L30.312 21.588C30.376 21.699 30.376 21.836 30.312 21.947L28.312 25.412C28.247 25.523 28.129 25.593 28 25.593ZM24.208 24.872H27.792L29.584 21.768L27.792 18.664H24.208L22.416 21.768L24.208 24.872ZM8.00001 25.593H4.00001C3.87201 25.593 3.75201 25.524 3.68801 25.412L1.68801 21.947C1.62401 21.836 1.62401 21.699 1.68801 21.588L3.68801 18.124C3.75201 18.013 3.87201 17.943 4.00001 17.943H8.00001C8.12801 17.943 8.24802 18.012 8.31202 18.124L10.208 21.407H16C16.199 21.407 16.36 21.568 16.36 21.767C16.36 21.966 16.199 22.127 16 22.127H10.208L8.31202 25.411C8.24802 25.523 8.12801 25.593 8.00001 25.593ZM4.20801 24.872H7.79201L9.58401 21.768L7.79201 18.664H4.20801L2.41601 21.768L4.20801 24.872ZM11 19.253C10.875 19.253 10.754 19.189 10.688 19.072L7.79201 14.056H4.00001C3.87201 14.056 3.75201 13.988 3.68801 13.876L1.68801 10.412C1.62401 10.301 1.62401 10.163 1.68801 10.052L3.68801 6.588C3.75201 6.477 3.87201 6.408 4.00001 6.408H8.00001C8.12801 6.408 8.24802 6.476 8.31202 6.588L10.312 10.052C10.376 10.163 10.376 10.301 10.312 10.412L8.41602 13.696L11.312 18.713C11.411 18.885 11.352 19.105 11.18 19.204C11.124 19.237 11.062 19.253 11 19.253ZM4.20801 13.336H7.79201L9.58401 10.232L7.79201 7.128H4.20801L2.41601 10.232L4.20801 13.336ZM28 14.056H24C23.871 14.056 23.753 13.988 23.688 13.876L21.792 10.591H16C15.801 10.591 15.64 10.43 15.64 10.231C15.64 10.032 15.801 9.871 16 9.871H21.792L23.688 6.587C23.752 6.476 23.871 6.407 24 6.407H28C28.129 6.407 28.247 6.475 28.312 6.587L30.312 10.051C30.376 10.162 30.376 10.3 30.312 10.411L28.312 13.875C28.247 13.988 28.129 14.056 28 14.056ZM24.208 13.336H27.792L29.584 10.232L27.792 7.128H24.208L22.416 10.232L24.208 13.336ZM11 13.484C10.939 13.484 10.877 13.469 10.82 13.436C10.648 13.336 10.589 13.116 10.688 12.944L13.584 7.928L11.688 4.644C11.624 4.532 11.624 4.395 11.688 4.284L13.688 0.819999C13.752 0.707999 13.872 0.639999 14 0.639999H18C18.129 0.639999 18.247 0.707999 18.312 0.819999L20.312 4.284C20.376 4.395 20.376 4.533 20.312 4.644L18.312 8.108C18.247 8.22 18.129 8.288 18 8.288H14.208L11.312 13.305C11.245 13.42 11.124 13.484 11 13.484ZM14.208 7.568H17.792L19.584 4.464L17.792 1.36H14.208L12.416 4.464L14.208 7.568Z" fill="black"/>
<path fill-rule="evenodd" clip-rule="evenodd" d="M16 18.6667C17.4728 18.6667 18.6667 17.4728 18.6667 16C18.6667 14.5272 17.4728 13.3333 16 13.3333C14.5272 13.3333 13.3333 14.5272 13.3333 16C13.3333 17.4728 14.5272 18.6667 16 18.6667ZM16 20C18.2091 20 20 18.2091 20 16C20 13.7909 18.2091 12 16 12C13.7909 12 12 13.7909 12 16C12 18.2091 13.7909 20 16 20Z" fill="#F16F39"/>
</g>
<defs>
<clipPath id="clip0_258_2809">
<rect width="32" height="32" fill="white"/>
</clipPath>
</defs>
</svg>
