<svg width="32" height="32" viewBox="0 0 32 32" fill="none" xmlns="http://www.w3.org/2000/svg">
<g clip-path="url(#clip0_268_3058)">
<path d="M31 16.64H26.36V5C26.36 4.801 26.199 4.64 26 4.64H16C15.837 4.64 15.694 4.749 15.652 4.907L11.652 19.874L11.661 19.876C11.647 19.915 11.64 19.957 11.64 20V22.701C10.868 22.553 10.023 22.695 9.36 23.068V8.36H12V7.64H9C8.801 7.64 8.64 7.801 8.64 8V23.61C8.023 24.219 7.64 25.066 7.64 26C7.64 27.853 9.147 29.36 11 29.36C12.731 29.36 14.161 28.044 14.341 26.36H22.659C22.839 28.044 24.268 29.36 26 29.36C27.732 29.36 29.161 28.044 29.341 26.36H31C31.199 26.36 31.36 26.199 31.36 26V17C31.36 16.801 31.199 16.64 31 16.64ZM11 28.64C9.544 28.64 8.36 27.456 8.36 26C8.36 24.544 9.545 23.36 11 23.36C12.455 23.36 13.64 24.544 13.64 26C13.64 27.456 12.456 28.64 11 28.64ZM16.64 25.64H14.341C14.211 24.427 13.433 23.405 12.36 22.928V20.36H16.64V25.64ZM12.46 19.64L13.636 15.24L17.53 12.992L18.1 13.98C18.166 14.095 18.288 14.16 18.412 14.16C18.474 14.16 18.535 14.145 18.592 14.112C18.765 14.012 18.823 13.792 18.724 13.62L17.225 11.022C17.125 10.85 16.906 10.791 16.733 10.89C16.561 10.99 16.502 11.21 16.601 11.382L17.171 12.369L13.9 14.257L16.278 5.36H25.641V16.64H19C18.88 16.64 18.768 16.7 18.7 16.8L16.807 19.639L12.46 19.64ZM26 28.64C24.544 28.64 23.36 27.456 23.36 26C23.36 24.544 24.544 23.36 26 23.36C27.456 23.36 28.64 24.544 28.64 26C28.64 27.456 27.456 28.64 26 28.64ZM30.64 25.64H29.341C29.161 23.956 27.732 22.64 26 22.64C24.268 22.64 22.839 23.956 22.659 25.64H17.36V20.11L19.192 17.361H30.64V25.64ZM5.64 13H6.36V27C6.36 27.199 6.199 27.36 6 27.36H1V26.64H5.64V13Z" fill="black"/>
<path fill-rule="evenodd" clip-rule="evenodd" d="M26 28.1C27.1598 28.1 28.1 27.1598 28.1 26C28.1 24.8402 27.1598 23.9 26 23.9C24.8402 23.9 23.9 24.8402 23.9 26C23.9 27.1598 24.8402 28.1 26 28.1ZM26 29.5C27.933 29.5 29.5 27.933 29.5 26C29.5 24.067 27.933 22.5 26 22.5C24.067 22.5 22.5 24.067 22.5 26C22.5 27.933 24.067 29.5 26 29.5Z" fill="#F16F39"/>
<path fill-rule="evenodd" clip-rule="evenodd" d="M11 28.1C12.1598 28.1 13.1 27.1598 13.1 26C13.1 24.8402 12.1598 23.9 11 23.9C9.8402 23.9 8.9 24.8402 8.9 26C8.9 27.1598 9.8402 28.1 11 28.1ZM11 29.5C12.933 29.5 14.5 27.933 14.5 26C14.5 24.067 12.933 22.5 11 22.5C9.067 22.5 7.5 24.067 7.5 26C7.5 27.933 9.067 29.5 11 29.5Z" fill="#F16F39"/>
</g>
<defs>
<clipPath id="clip0_268_3058">
<rect width="32" height="32" fill="white"/>
</clipPath>
</defs>
</svg>
