<svg width="32" height="32" viewBox="0 0 32 32" fill="none" xmlns="http://www.w3.org/2000/svg">
<g clip-path="url(#clip0_250_2628)">
<path d="M19.36 28.251C19.36 29.139 18.637 29.861 17.75 29.861H16.36V31H15.64V29.861H13V29.14H17.75C18.241 29.14 18.64 28.742 18.64 28.25C18.64 27.758 18.242 27.36 17.75 27.36H14.25C13.362 27.36 12.641 26.637 12.641 25.75C12.641 24.863 13.363 24.14 14.25 24.14H15.641V23H16.361V24.141H19V24.862H14.25C13.759 24.862 13.36 25.26 13.36 25.752C13.36 26.244 13.759 26.642 14.25 26.642H17.75C18.638 26.641 19.36 27.363 19.36 28.251ZM3.14702 28.214H10.667V28.935H3.14702C2.24202 28.935 1.43102 28.467 0.979024 27.683C0.527024 26.899 0.526024 25.963 0.979024 25.179L3.80902 20.281L1.70102 20.846L1.51402 20.151L4.80902 19.269L5.69202 22.564L4.99702 22.75L4.43202 20.641L1.60202 25.54C1.28002 26.099 1.28002 26.766 1.60202 27.324C1.92502 27.881 2.50202 28.214 3.14702 28.214ZM31.021 27.615C30.569 28.399 29.757 28.868 28.852 28.868H23.159L24.702 30.41L24.192 30.92L21.781 28.508L24.192 26.095L24.702 26.605L23.159 28.148H28.852C29.498 28.148 30.075 27.815 30.398 27.255C30.72 26.696 30.72 26.03 30.398 25.472L26.209 18.18L26.834 17.821L31.022 25.113C31.475 25.896 31.475 26.831 31.021 27.615ZM22.348 5.8L21.465 9.095L18.17 8.212L18.356 7.517L20.459 8.08L17.641 3.254C17.318 2.694 16.74 2.36 16.095 2.36C15.45 2.36 14.872 2.693 14.55 3.252L10.31 10.188L9.69502 9.812L13.93 2.884C14.378 2.108 15.189 1.64 16.094 1.64C16.999 1.64 17.81 2.108 18.262 2.892L21.085 7.727L21.652 5.614L22.348 5.8Z" fill="black"/>
<path d="M22.798 13.4693C22.798 13.1933 23.022 12.9693 23.298 12.9693C23.574 12.9693 23.798 13.1933 23.798 13.4693C23.798 13.7453 23.574 13.9693 23.298 13.9693C23.022 13.9693 22.798 13.7453 22.798 13.4693Z" fill="black"/>
<path d="M25.4797 13.4693C25.4797 13.1933 25.7037 12.9693 25.9797 12.9693C26.2557 12.9693 26.4797 13.1933 26.4797 13.4693C26.4797 13.7453 26.2557 13.9693 25.9797 13.9693C25.7037 13.9693 25.4797 13.7453 25.4797 13.4693Z" fill="black"/>
<path d="M23.8112 9.75136C23.8112 9.29084 24.1849 8.91709 24.6454 8.91709C25.1059 8.91709 25.4797 9.29084 25.4797 9.75136C25.4797 10.2119 25.1059 10.5856 24.6454 10.5856C24.1849 10.5856 23.8112 10.2119 23.8112 9.75136Z" fill="black"/>
<path fill-rule="evenodd" clip-rule="evenodd" d="M22.5301 12.1201C22.1105 12.1201 21.7703 12.4603 21.7703 12.8799V15.0549C21.7703 15.4745 22.1105 15.8147 22.5301 15.8147H26.7908C27.2104 15.8147 27.5506 15.4745 27.5506 15.0549V12.8799C27.5506 12.4603 27.2104 12.1201 26.7908 12.1201H22.5301ZM21.085 12.8799C21.085 12.0818 21.732 11.4348 22.5301 11.4348H26.7908C27.5889 11.4348 28.2359 12.0818 28.2359 12.8799V15.0549C28.2359 15.853 27.5889 16.5 26.7908 16.5H22.5301C21.732 16.5 21.085 15.853 21.085 15.0549V12.8799Z" fill="black"/>
<path fill-rule="evenodd" clip-rule="evenodd" d="M25.0029 10.2663V11.5754H24.3176V10.2663H25.0029Z" fill="black"/>
<path fill-rule="evenodd" clip-rule="evenodd" d="M7 16.5C8.38071 16.5 9.5 15.3807 9.5 14C9.5 12.6193 8.38071 11.5 7 11.5C5.61929 11.5 4.5 12.6193 4.5 14C4.5 15.3807 5.61929 16.5 7 16.5ZM7 17.75C9.07107 17.75 10.75 16.0711 10.75 14C10.75 11.9289 9.07107 10.25 7 10.25C4.92893 10.25 3.25 11.9289 3.25 14C3.25 16.0711 4.92893 17.75 7 17.75Z" fill="#F16F39"/>
</g>
<defs>
<clipPath id="clip0_250_2628">
<rect width="32" height="32" fill="white"/>
</clipPath>
</defs>
</svg>
