<svg width="32" height="32" viewBox="0 0 32 32" fill="none" xmlns="http://www.w3.org/2000/svg">
<g clip-path="url(#clip0_240_2398)">
<path d="M31 10.36H21.64V1.00001H22.361V9.13101L30.746 0.746015L31.256 1.25501L22.869 9.64001H31V10.36ZM21.36 16C21.36 13.044 18.955 10.64 16 10.64C13.044 10.64 10.64 13.044 10.64 16C10.64 18.955 13.044 21.36 16 21.36C18.955 21.36 21.36 18.955 21.36 16ZM20.64 16C20.64 18.559 18.559 20.64 16 20.64C13.441 20.64 11.36 18.559 11.36 16C11.36 13.441 13.442 11.36 16 11.36C18.558 11.36 20.64 13.441 20.64 16ZM31.36 16C31.36 14.647 31.169 13.269 30.791 11.904L30.098 12.095C30.457 13.398 30.64 14.711 30.64 15.999C30.64 24.071 24.073 30.639 16 30.639C7.92701 30.64 1.36001 24.072 1.36001 16C1.36001 7.92701 7.92701 1.36001 16 1.36001C17.287 1.36001 18.601 1.54301 19.904 1.90301L20.095 1.20901C18.729 0.832015 17.352 0.640015 16 0.640015C7.53001 0.640015 0.640015 7.53001 0.640015 16C0.640015 24.47 7.53001 31.36 16 31.36C24.47 31.36 31.36 24.47 31.36 16ZM26.36 16C26.36 14.567 26.068 13.172 25.492 11.856L24.832 12.144C25.368 13.37 25.64 14.667 25.64 16C25.64 21.315 21.316 25.64 16 25.64C10.684 25.64 6.36002 21.315 6.36002 16C6.36002 10.685 10.685 6.36002 16 6.36002C17.333 6.36002 18.631 6.63202 19.855 7.16802L20.144 6.50901C18.827 5.93201 17.434 5.64001 16 5.64001C10.288 5.64001 5.64001 10.288 5.64001 16C5.64001 21.713 10.287 26.36 16 26.36C21.713 26.36 26.36 21.713 26.36 16ZM16 15C15.448 15 15 15.448 15 16C15 16.552 15.448 17 16 17C16.552 17 17 16.552 17 16C17 15.448 16.552 15 16 15Z" fill="#212529"/>
<path fill-rule="evenodd" clip-rule="evenodd" d="M16 20.2667C18.3564 20.2667 20.2666 18.3564 20.2666 16C20.2666 13.6436 18.3564 11.7333 16 11.7333C13.6436 11.7333 11.7333 13.6436 11.7333 16C11.7333 18.3564 13.6436 20.2667 16 20.2667ZM16 22.4C19.5346 22.4 22.4 19.5346 22.4 16C22.4 12.4654 19.5346 9.60001 16 9.60001C12.4654 9.60001 9.59998 12.4654 9.59998 16C9.59998 19.5346 12.4654 22.4 16 22.4Z" fill="#F16F39"/>
</g>
<defs>
<clipPath id="clip0_240_2398">
<rect width="32" height="32" fill="white"/>
</clipPath>
</defs>
</svg>
