<svg width="32" height="32" viewBox="0 0 32 32" fill="none" xmlns="http://www.w3.org/2000/svg">
<g clip-path="url(#clip0_243_2571)">
<path d="M15.6409 16.256V29.64H6.35995V25.257C6.56695 25.31 6.85695 25.364 7.20295 25.364C7.85295 25.364 8.68095 25.173 9.42595 24.427C10.9189 22.934 10.1869 21.115 10.1549 21.038C10.1179 20.95 10.0489 20.881 9.96095 20.845C9.88495 20.812 8.06595 20.081 6.57395 21.574C6.31395 21.833 6.13995 22.102 5.99995 22.371C5.85995 22.102 5.68595 21.833 5.42595 21.574C3.93395 20.082 2.11495 20.812 2.03895 20.845C1.95095 20.881 1.88095 20.95 1.84495 21.038C1.81295 21.115 1.08095 22.934 2.57395 24.427C3.31995 25.172 4.14695 25.364 4.79695 25.364C5.14295 25.364 5.43295 25.31 5.63995 25.257V29.64H2.99995V30.361H18.9999V29.64H16.3599V23.15L18.2549 21.255L17.7449 20.745L16.3599 22.131V16.256H15.6409ZM5.53995 24.539C5.14495 24.65 4.02395 24.857 3.08295 23.917C2.13895 22.974 2.34595 21.858 2.46095 21.461C2.85595 21.35 3.97695 21.143 4.91795 22.083C5.48595 22.651 5.63395 23.278 5.63995 23.777C5.63995 23.804 5.64095 23.828 5.64195 23.854C5.63595 24.149 5.58195 24.393 5.53995 24.539ZM6.36095 23.777C6.36595 23.279 6.51495 22.651 7.08295 22.083C8.02795 21.138 9.14395 21.347 9.53995 21.46C9.65595 21.856 9.86295 22.973 8.91795 23.917C7.97295 24.862 6.85695 24.653 6.46095 24.54C6.41795 24.394 6.36395 24.15 6.35895 23.854C6.35895 23.828 6.36095 23.804 6.36095 23.777ZM27.2039 7.363C27.8539 7.363 28.6809 7.172 29.4269 6.426C30.9199 4.933 30.1879 3.115 30.1559 3.039C30.1199 2.951 30.0509 2.881 29.9629 2.845C29.8839 2.814 28.0669 2.08 26.5739 3.574C26.3139 3.833 26.1399 4.102 25.9999 4.37C25.8599 4.102 25.6859 3.833 25.4269 3.574C23.9319 2.08 22.1149 2.814 22.0379 2.845C21.9499 2.882 21.8809 2.951 21.8449 3.039C21.8129 3.116 21.0799 4.934 22.5739 6.426C23.3199 7.172 24.1459 7.363 24.7969 7.363C25.1439 7.363 25.4329 7.309 25.6409 7.256V18.13L24.2559 16.746L23.7459 17.255L25.6409 19.15V29.64H22.9999V30.361H28.9999V29.64H26.3599V14.149L28.2549 12.254L27.7449 11.745L26.3599 13.13V7.256C26.5679 7.309 26.8579 7.363 27.2039 7.363ZM26.3629 5.794C26.3659 5.292 26.5109 4.654 27.0829 4.082C28.0269 3.138 29.1449 3.346 29.5389 3.46C29.6509 3.854 29.8569 4.977 28.9169 5.917C27.9739 6.861 26.8569 6.654 26.4609 6.539C26.4189 6.391 26.3629 6.14 26.3609 5.834C26.3609 5.82 26.3629 5.809 26.3629 5.794ZM23.0829 5.917C22.1379 4.972 22.3449 3.856 22.4599 3.46C22.8579 3.345 23.9729 3.137 24.9169 4.082C25.4829 4.647 25.6319 5.271 25.6389 5.768C25.6389 5.8 25.6399 5.829 25.6409 5.861C25.6349 6.153 25.5819 6.394 25.5399 6.539C25.1439 6.655 24.0279 6.863 23.0829 5.917Z" fill="black"/>
<path fill-rule="evenodd" clip-rule="evenodd" d="M15.75 15.25C17.1307 15.25 18.25 14.1307 18.25 12.75C18.25 11.3693 17.1307 10.25 15.75 10.25C14.3693 10.25 13.25 11.3693 13.25 12.75C13.25 14.1307 14.3693 15.25 15.75 15.25ZM15.75 16.5C17.8211 16.5 19.5 14.8211 19.5 12.75C19.5 10.6789 17.8211 9 15.75 9C13.6789 9 12 10.6789 12 12.75C12 14.8211 13.6789 16.5 15.75 16.5Z" fill="#F16F39"/>
</g>
<defs>
<clipPath id="clip0_243_2571">
<rect width="32" height="32" fill="white"/>
</clipPath>
</defs>
</svg>
