<svg width="61" height="60" viewBox="0 0 61 60" fill="none" xmlns="http://www.w3.org/2000/svg">
<g clip-path="url(#clip0_55_18049)">
<path d="M58.6252 58.7997H2.3752C2.00207 58.7997 1.7002 58.4978 1.7002 58.1247V14.9997C1.7002 14.6266 2.00207 14.3247 2.3752 14.3247H42.9502V1.87471C42.9502 1.50158 43.2521 1.19971 43.6252 1.19971H58.6252C58.9983 1.19971 59.3002 1.50158 59.3002 1.87471V58.1247C59.3002 58.4978 58.9983 58.7997 58.6252 58.7997ZM31.1752 57.4497H57.9502V2.54971H44.3002V14.9997C44.3002 15.3728 43.9983 15.6747 43.6252 15.6747H3.0502V57.4497H19.5127V44.9997C19.5127 44.6266 19.8146 44.3247 20.1877 44.3247H30.5002C30.8733 44.3247 31.1752 44.6266 31.1752 44.9997V57.4497ZM20.8627 57.4497H29.8252V45.6747H20.8627V57.4497ZM51.8002 46.8747H50.4502V43.1247H51.8021L51.8002 46.8747ZM41.4877 46.8747H40.1377V43.1247H41.4896L41.4877 46.8747ZM10.5502 46.8747H9.2002V43.1247H10.5502V46.8747ZM51.8002 39.3747H50.4502V35.6247H51.8021L51.8002 39.3747ZM41.4877 39.3747H40.1377V35.6247H41.4896L41.4877 39.3747ZM31.1752 39.3747H29.8252V35.6247H31.1752V39.3747ZM20.8627 39.3747H19.5127V35.6247H20.8627V39.3747ZM10.5502 39.3747H9.2002V35.6247H10.5502V39.3747ZM51.8002 31.8747H50.4502V28.1247H51.8021L51.8002 31.8747ZM41.4877 31.8747H40.1377V28.1247H41.4896L41.4877 31.8747ZM31.1752 31.8747H29.8252V28.1247H31.1752V31.8747ZM20.8627 31.8747H19.5127V28.1247H20.8627V31.8747ZM10.5502 31.8747H9.2002V28.1247H10.5502V31.8747ZM51.8002 24.3747H50.4502V20.6247H51.8021L51.8002 24.3747ZM41.4877 24.3747H40.1377V20.6247H41.4896L41.4877 24.3747ZM31.1752 24.3747H29.8252V20.6247H31.1752V24.3747ZM20.8627 24.3747H19.5127V20.6247H20.8627V24.3747ZM10.5502 24.3747H9.2002V20.6247H10.5502V24.3747ZM51.8002 12.1872H50.4502V9.11221H47.3752V7.76221H50.4502V4.68721H51.8021V7.76221H54.8752V9.11221H51.8002V12.1872Z" fill="#212529"/>
</g>
<defs>
<clipPath id="clip0_55_18049">
<rect width="60" height="60" fill="white" transform="translate(0.5)"/>
</clipPath>
</defs>
</svg>
