<svg width="32" height="32" viewBox="0 0 32 32" fill="none" xmlns="http://www.w3.org/2000/svg">
<g clip-path="url(#clip0_250_2654)">
<path d="M29.36 31H28.64V5.869L27.255 7.254L26.745 6.745L29 4.491L31.255 6.746L30.745 7.255L29.36 5.869V31ZM24.36 31H23.64V10.869L22.255 12.254L21.745 11.745L24 9.491L26.255 11.746L25.745 12.255L24.36 10.87V31ZM19.36 31H18.64V15.869L17.255 17.255L16.746 16.746L19 14.491L21.255 16.746L20.745 17.255L19.36 15.869V31ZM14.36 31H13.64V20.869L12.254 22.255L11.745 21.745L14 19.491L16.254 21.745L15.745 22.255L14.359 20.869L14.36 31Z" fill="black"/>
<path d="M4.71302 20.5522C4.71302 20.2762 4.93702 20.0522 5.21302 20.0522C5.48902 20.0522 5.71302 20.2762 5.71302 20.5522C5.71302 20.8282 5.48902 21.0522 5.21302 21.0522C4.93702 21.0522 4.71302 20.8282 4.71302 20.5522Z" fill="black"/>
<path d="M7.39464 20.5522C7.39464 20.2762 7.61865 20.0522 7.89465 20.0522C8.17065 20.0522 8.39465 20.2762 8.39465 20.5522C8.39465 20.8282 8.17065 21.0522 7.89465 21.0522C7.61865 21.0522 7.39464 20.8282 7.39464 20.5522Z" fill="black"/>
<path d="M5.72614 16.8343C5.72614 16.3738 6.0999 16 6.56041 16C7.02092 16 7.39467 16.3738 7.39467 16.8343C7.39467 17.2948 7.02092 17.6685 6.56041 17.6685C6.0999 17.6685 5.72614 17.2948 5.72614 16.8343Z" fill="black"/>
<path fill-rule="evenodd" clip-rule="evenodd" d="M4.44506 19.203C4.02545 19.203 3.68529 19.5432 3.68529 19.9628V22.1378C3.68529 22.5575 4.02545 22.8976 4.44506 22.8976H8.70577C9.12539 22.8976 9.46555 22.5575 9.46555 22.1378V19.9628C9.46555 19.5432 9.12539 19.203 8.70577 19.203H4.44506ZM3 19.9628C3 19.1647 3.64698 18.5177 4.44506 18.5177H8.70577C9.50386 18.5177 10.1508 19.1647 10.1508 19.9628V22.1378C10.1508 22.9359 9.50386 23.5829 8.70577 23.5829H4.44506C3.64698 23.5829 3 22.9359 3 22.1378V19.9628Z" fill="black"/>
<path fill-rule="evenodd" clip-rule="evenodd" d="M6.91791 17.3493V18.6583H6.23262V17.3493H6.91791Z" fill="black"/>
<path fill-rule="evenodd" clip-rule="evenodd" d="M6.5 30C7.60457 30 8.5 29.1046 8.5 28C8.5 26.8954 7.60457 26 6.5 26C5.39543 26 4.5 26.8954 4.5 28C4.5 29.1046 5.39543 30 6.5 30ZM6.5 31C8.15685 31 9.5 29.6569 9.5 28C9.5 26.3431 8.15685 25 6.5 25C4.84315 25 3.5 26.3431 3.5 28C3.5 29.6569 4.84315 31 6.5 31Z" fill="#F16F39"/>
</g>
<defs>
<clipPath id="clip0_250_2654">
<rect width="32" height="32" fill="white"/>
</clipPath>
</defs>
</svg>
