<svg width="32" height="32" viewBox="0 0 32 32" fill="none" xmlns="http://www.w3.org/2000/svg">
<g clip-path="url(#clip0_240_2422)">
<path d="M19 31.3596H13V30.6396H19V31.3596ZM20 29.3596H12V28.6396H20V29.3596ZM20 27.3596H12V26.6396H20V27.3596ZM20 25.3596H12C11.801 25.3596 11.64 25.1986 11.64 24.9996V23.5466C11.64 21.9246 11.64 19.4736 9.59901 17.3516C7.69101 15.3656 6.64001 12.8486 6.64001 10.2646C6.64001 4.86763 10.751 0.640625 16 0.640625C21.249 0.640625 25.36 4.86763 25.36 10.2646C25.36 12.8486 24.309 15.3666 22.401 17.3506C20.36 19.4736 20.36 21.9246 20.36 23.5466V24.9996C20.36 25.1986 20.199 25.3596 20 25.3596ZM12.36 24.6396H19.64V23.5466C19.64 21.9146 19.64 19.1836 21.882 16.8516C23.66 15.0006 24.64 12.6616 24.64 10.2636C24.64 5.27063 20.845 1.35963 16 1.35963C11.155 1.35963 7.36001 5.27063 7.36001 10.2636C7.36001 12.6616 8.33901 15.0006 10.118 16.8516C12.36 19.1836 12.36 21.9146 12.36 23.5466V24.6396ZM17.183 16.8596H14.818C14.619 16.8596 14.458 16.6986 14.458 16.4996V15.1906L13.777 14.9056L12.849 15.8336C12.782 15.9016 12.69 15.9386 12.595 15.9386C12.499 15.9386 12.408 15.9006 12.341 15.8336L10.669 14.1606C10.528 14.0196 10.528 13.7926 10.669 13.6516L11.594 12.7256L11.314 12.0426H10C9.80101 12.0426 9.64001 11.8816 9.64001 11.6826V9.31662C9.64001 9.11762 9.80101 8.95662 10 8.95662H11.309L11.594 8.27562L10.667 7.34762C10.526 7.20662 10.526 6.97963 10.667 6.83863L12.339 5.16562C12.474 5.02962 12.713 5.02962 12.848 5.16562L13.774 6.09162L14.458 5.81162V4.49962C14.458 4.30062 14.619 4.13962 14.818 4.13962H17.183C17.382 4.13962 17.543 4.30062 17.543 4.49962V5.80862L18.224 6.09362L19.152 5.16562C19.293 5.02462 19.521 5.02462 19.662 5.16562L21.335 6.83863C21.476 6.97963 21.476 7.20662 21.335 7.34762L20.409 8.27363L20.689 8.95662H22C22.199 8.95662 22.36 9.11762 22.36 9.31662V11.6826C22.36 11.8816 22.199 12.0426 22 12.0426H20.69L20.406 12.7236L21.334 13.6516C21.475 13.7926 21.475 14.0196 21.334 14.1606L19.661 15.8336C19.594 15.9016 19.502 15.9386 19.406 15.9386C19.31 15.9386 19.218 15.9006 19.151 15.8336L18.226 14.9076L17.542 15.1876V16.4996C17.543 16.6986 17.382 16.8596 17.183 16.8596ZM15.177 16.1396H16.823V14.9456C16.823 14.7996 16.911 14.6676 17.046 14.6126L18.175 14.1506C18.309 14.0956 18.464 14.1266 18.567 14.2296L19.407 15.0696L20.571 13.9056L19.726 13.0616C19.623 12.9586 19.592 12.8026 19.649 12.6676L20.12 11.5426C20.176 11.4086 20.307 11.3216 20.452 11.3216H21.64V9.67662H20.448C20.302 9.67662 20.171 9.58863 20.115 9.45363L19.652 8.32563C19.597 8.19163 19.628 8.03662 19.73 7.93462L20.571 7.09362L19.406 5.92962L18.562 6.77362C18.458 6.87762 18.302 6.90762 18.168 6.85162L17.043 6.38062C16.909 6.32462 16.822 6.19362 16.822 6.04862V4.85963H15.176V6.05262C15.176 6.19862 15.088 6.33063 14.953 6.38563L13.825 6.84862C13.689 6.90362 13.536 6.87163 13.434 6.76963L12.593 5.92962L11.43 7.09362L12.274 7.93763C12.378 8.04063 12.408 8.19662 12.352 8.33162L11.881 9.45662C11.825 9.59062 11.694 9.67762 11.549 9.67762H10.36V11.3236H11.554C11.7 11.3236 11.832 11.4116 11.887 11.5466L12.349 12.6746C12.404 12.8086 12.373 12.9636 12.27 13.0656L11.43 13.9066L12.594 15.0706L13.438 14.2266C13.541 14.1226 13.696 14.0906 13.832 14.1486L14.957 14.6196C15.091 14.6756 15.178 14.8066 15.178 14.9516L15.177 16.1396Z" fill="black"/>
<path fill-rule="evenodd" clip-rule="evenodd" d="M16 12.5408C17.1173 12.5408 18.0231 11.635 18.0231 10.5177C18.0231 9.4004 17.1173 8.49463 16 8.49463C14.8827 8.49463 13.9769 9.4004 13.9769 10.5177C13.9769 11.635 14.8827 12.5408 16 12.5408ZM16 13.4079C17.5962 13.4079 18.8901 12.1139 18.8901 10.5177C18.8901 8.92155 17.5962 7.62759 16 7.62759C14.4038 7.62759 13.1099 8.92155 13.1099 10.5177C13.1099 12.1139 14.4038 13.4079 16 13.4079Z" fill="#F16F39"/>
</g>
<defs>
<clipPath id="clip0_240_2422">
<rect width="32" height="32" fill="white"/>
</clipPath>
</defs>
</svg>
