<svg width="32" height="32" viewBox="0 0 32 32" fill="none" xmlns="http://www.w3.org/2000/svg">
<g clip-path="url(#clip0_252_2664)">
<path d="M16 22.735L15.964 22.013L16.03 22.016C16.622 22.014 17.236 21.92 17.823 21.734L18.04 22.42C17.383 22.629 16.696 22.735 16 22.735ZM13.885 22.396C13.216 22.175 12.587 21.851 12.015 21.431L12.442 20.851C12.952 21.226 13.513 21.515 14.11 21.712L13.885 22.396ZM19.922 21.477L19.502 20.891C20.013 20.525 20.463 20.081 20.841 19.572L21.419 20.002C20.997 20.569 20.493 21.066 19.922 21.477ZM10.535 19.938C10.12 19.363 9.80103 18.731 9.58603 18.06L10.272 17.839C10.464 18.439 10.75 19.003 11.12 19.516L10.535 19.938ZM22.391 18.133L21.707 17.904C21.906 17.308 22.01 16.684 22.015 16.051L22.736 16.057C22.729 16.766 22.613 17.465 22.391 18.133ZM9.98503 15.983L9.26503 15.981C9.26703 15.272 9.37903 14.573 9.59803 13.904L10.283 14.128C10.087 14.725 9.98703 15.349 9.98503 15.983ZM21.738 14.193C21.55 13.591 21.267 13.026 20.9 12.512L21.486 12.093C21.897 12.669 22.214 13.302 22.425 13.977L21.738 14.193ZM11.139 12.457L10.558 12.032C10.975 11.461 11.476 10.961 12.047 10.547L12.47 11.13C11.96 11.5 11.512 11.946 11.139 12.457ZM19.586 11.17C19.079 10.793 18.519 10.499 17.922 10.298L18.152 9.615C18.82 9.84 19.447 10.169 20.015 10.591L19.586 11.17ZM14.144 10.276L13.922 9.591C14.591 9.375 15.29 9.265 16 9.265L16.074 9.626L16.033 9.985C16.033 9.985 16.03 9.985 16.028 9.985C15.363 9.985 14.74 10.083 14.144 10.276ZM16 25.36C5.70403 25.36 1.70803 16.233 1.66803 16.14C1.63003 16.05 1.63003 15.949 1.66803 15.859C1.70803 15.767 5.70403 6.64 16 6.64C26.296 6.64 30.292 15.767 30.331 15.859C30.369 15.949 30.369 16.05 30.331 16.14C30.292 16.233 26.296 25.36 16 25.36ZM2.39603 16C2.93703 17.129 6.88103 24.64 16 24.64C25.132 24.64 29.064 17.131 29.604 16.001C29.062 14.871 25.119 7.36 16 7.36C6.86803 7.36 2.93603 14.87 2.39603 16Z" fill="black"/>
<path fill-rule="evenodd" clip-rule="evenodd" d="M16 19C17.6569 19 19 17.6569 19 16C19 14.3431 17.6569 13 16 13C14.3431 13 13 14.3431 13 16C13 17.6569 14.3431 19 16 19ZM16 20.5C18.4853 20.5 20.5 18.4853 20.5 16C20.5 13.5147 18.4853 11.5 16 11.5C13.5147 11.5 11.5 13.5147 11.5 16C11.5 18.4853 13.5147 20.5 16 20.5Z" fill="#F16F39"/>
</g>
<defs>
<clipPath id="clip0_252_2664">
<rect width="32" height="32" fill="white"/>
</clipPath>
</defs>
</svg>
