<svg width="32" height="32" viewBox="0 0 32 32" fill="none" xmlns="http://www.w3.org/2000/svg">
<g clip-path="url(#clip0_240_2421)">
<path fill-rule="evenodd" clip-rule="evenodd" d="M16.0148 22.6443C16.961 22.6443 17.7281 21.8773 17.7281 20.9311C17.7281 19.9849 16.961 19.2179 16.0148 19.2179C15.0687 19.2179 14.3016 19.9849 14.3016 20.9311C14.3016 21.8773 15.0687 22.6443 16.0148 22.6443ZM16.0148 23.3296C17.3395 23.3296 18.4134 22.2557 18.4134 20.9311C18.4134 19.6064 17.3395 18.5326 16.0148 18.5326C14.6902 18.5326 13.6163 19.6064 13.6163 20.9311C13.6163 22.2557 14.6902 23.3296 16.0148 23.3296Z" fill="#F16F39"/>
<path d="M14.1526 11.7029C14.1526 11.4269 14.3766 11.2029 14.6526 11.2029C14.9286 11.2029 15.1526 11.4269 15.1526 11.7029C15.1526 11.9789 14.9286 12.2029 14.6526 12.2029C14.3766 12.2029 14.1526 11.9789 14.1526 11.7029Z" fill="black"/>
<path d="M16.8342 11.7029C16.8342 11.4269 17.0583 11.2029 17.3343 11.2029C17.6103 11.2029 17.8343 11.4269 17.8343 11.7029C17.8343 11.9789 17.6103 12.2029 17.3343 12.2029C17.0583 12.2029 16.8342 11.9789 16.8342 11.7029Z" fill="black"/>
<path d="M15.1658 7.98501C15.1658 7.5245 15.5395 7.15075 16 7.15075C16.4605 7.15075 16.8343 7.5245 16.8343 7.98501C16.8343 8.44553 16.4605 8.81928 16 8.81928C15.5395 8.81928 15.1658 8.44553 15.1658 7.98501Z" fill="black"/>
<path fill-rule="evenodd" clip-rule="evenodd" d="M13.8847 10.3538C13.4651 10.3538 13.1249 10.6939 13.1249 11.1135V13.2886C13.1249 13.7082 13.4651 14.0484 13.8847 14.0484H18.1454C18.565 14.0484 18.9052 13.7082 18.9052 13.2886V11.1135C18.9052 10.6939 18.565 10.3538 18.1454 10.3538H13.8847ZM12.4396 11.1135C12.4396 10.3155 13.0866 9.66848 13.8847 9.66848H18.1454C18.9435 9.66848 19.5904 10.3155 19.5904 11.1135V13.2886C19.5904 14.0867 18.9435 14.7337 18.1454 14.7337H13.8847C13.0866 14.7337 12.4396 14.0867 12.4396 13.2886V11.1135Z" fill="black"/>
<path fill-rule="evenodd" clip-rule="evenodd" d="M16.3575 8.5V9.80906H15.6722V8.5H16.3575Z" fill="black"/>
<path d="M22.9999 26.6406V27.3606H24.9999V26.6406H22.9999Z" fill="black"/>
<path fill-rule="evenodd" clip-rule="evenodd" d="M21.9999 29.3606H29.9999C30.1989 29.3606 30.3599 29.1996 30.3599 29.0006V25.0006C30.3599 24.8016 30.1989 24.6406 29.9999 24.6406H26.3599V21.0006C26.3599 20.8016 26.1989 20.6406 25.9999 20.6406H18.3961C18.4076 20.7358 18.4135 20.8327 18.4135 20.9311C18.4135 21.0777 18.4003 21.2212 18.3751 21.3606H25.6399V24.6406H21.9999C21.8009 24.6406 21.6399 24.8016 21.6399 25.0006V29.0006C21.6399 29.1996 21.8009 29.3606 21.9999 29.3606ZM29.6389 28.6406H22.3599V25.3606H29.6389V28.6406Z" fill="black"/>
<path d="M12.9999 27.3606H14.9999V26.6406H12.9999V27.3606Z" fill="black"/>
<path fill-rule="evenodd" clip-rule="evenodd" d="M16.3599 23.305C16.2473 23.3212 16.1321 23.3296 16.015 23.3296C15.8874 23.3296 15.7621 23.3196 15.6399 23.3004V24.6396H11.9999C11.8009 24.6396 11.6399 24.8006 11.6399 24.9996V28.9996C11.6399 29.1986 11.8009 29.3596 11.9999 29.3596H19.9999C20.1989 29.3596 20.3599 29.1986 20.3599 28.9996V24.9996C20.3599 24.8006 20.1989 24.6396 19.9999 24.6396H16.3599V23.305ZM19.6399 28.6406H12.3599V25.3606H19.6399V28.6406Z" fill="black"/>
<path d="M2.99989 27.3606H4.99989V26.6406H2.99989V27.3606Z" fill="black"/>
<path fill-rule="evenodd" clip-rule="evenodd" d="M13.6548 21.3606C13.6296 21.2212 13.6165 21.0777 13.6165 20.9311C13.6165 20.8327 13.6224 20.7358 13.6339 20.6406H5.99989C5.80089 20.6406 5.63989 20.8016 5.63989 21.0006V24.6396H1.99989C1.80089 24.6396 1.63989 24.8006 1.63989 24.9996V28.9996C1.63989 29.1986 1.80089 29.3596 1.99989 29.3596H9.99989C10.1989 29.3596 10.3599 29.1986 10.3599 28.9996V24.9996C10.3599 24.8006 10.1989 24.6396 9.99989 24.6396H6.35989V21.3606H13.6548ZM9.63989 25.3606V28.6406H2.35989V25.3606H9.63989Z" fill="black"/>
<path d="M21.9999 5.00056C22.2759 5.00056 22.4999 4.77656 22.4999 4.50056C22.4999 4.22456 22.2759 4.00056 21.9999 4.00056C21.7239 4.00056 21.4999 4.22456 21.4999 4.50056C21.4999 4.77656 21.7239 5.00056 21.9999 5.00056Z" fill="black"/>
<path d="M19.4999 4.50056C19.4999 4.22456 19.7239 4.00056 19.9999 4.00056C20.2759 4.00056 20.4999 4.22456 20.4999 4.50056C20.4999 4.77656 20.2759 5.00056 19.9999 5.00056C19.7239 5.00056 19.4999 4.77656 19.4999 4.50056Z" fill="black"/>
<path d="M17.4999 4.50056C17.4999 4.22456 17.7239 4.00056 17.9999 4.00056C18.2759 4.00056 18.4999 4.22456 18.4999 4.50056C18.4999 4.77656 18.2759 5.00056 17.9999 5.00056C17.7239 5.00056 17.4999 4.77656 17.4999 4.50056Z" fill="black"/>
<path fill-rule="evenodd" clip-rule="evenodd" d="M15.6399 18.5617V16.3606H7.99989C7.80089 16.3606 7.63989 16.1996 7.63989 16.0006V3.00056C7.63989 2.80156 7.80089 2.64056 7.99989 2.64056H23.9999C24.1989 2.64056 24.3599 2.80156 24.3599 3.00056V16.0006C24.3599 16.1996 24.1989 16.3606 23.9999 16.3606H16.3599V18.5572C16.2473 18.541 16.1321 18.5326 16.015 18.5326C15.8874 18.5326 15.7621 18.5425 15.6399 18.5617ZM23.6399 15.6406H8.35989V6.36056H23.6399V15.6406ZM23.6399 5.64056H8.35989V3.36056H23.6399V5.64056Z" fill="black"/>
</g>
<defs>
<clipPath id="clip0_240_2421">
<rect width="32" height="32" fill="white"/>
</clipPath>
</defs>
</svg>
