<svg width="32" height="32" viewBox="0 0 32 32" fill="none" xmlns="http://www.w3.org/2000/svg">
<g clip-path="url(#clip0_243_2583)">
<path d="M24.36 31H23.64V23.5C23.64 19.948 21.226 16.896 17.768 16.076C17.618 16.04 17.507 15.913 17.493 15.76C17.478 15.606 17.564 15.46 17.705 15.397C19.222 14.722 20.201 13.216 20.201 11.561C20.201 9.245 18.317 7.36 16.001 7.36C13.685 7.36 11.801 9.244 11.801 11.561C11.801 13.217 12.781 14.723 14.297 15.397C14.438 15.46 14.523 15.606 14.509 15.76C14.495 15.913 14.384 16.041 14.234 16.076C10.776 16.896 8.36101 19.948 8.36101 23.5V31H7.64001V23.5C7.64001 19.908 9.89701 16.782 13.226 15.621C11.9 14.714 11.08 13.2 11.08 11.561C11.08 9.597 12.237 7.898 13.904 7.109C14.093 6.626 14.2 6.048 14.2 5.5C14.2 3.179 12.355 1.36 10 1.36C7.64501 1.36 5.79901 3.179 5.79901 5.5C5.79901 7.166 6.80201 8.732 8.29501 9.397C8.43701 9.46 8.52201 9.606 8.50701 9.76C8.49301 9.913 8.38202 10.041 8.23202 10.076C4.77402 10.896 2.36001 13.948 2.36001 17.5V25H1.64001V17.5C1.64001 13.906 3.89901 10.779 7.23101 9.619C5.91701 8.705 5.08001 7.144 5.08001 5.5C5.08001 2.82 7.28701 0.639999 10 0.639999C12.713 0.639999 14.92 2.82 14.92 5.5C14.92 5.937 14.864 6.381 14.758 6.799C15.552 6.592 16.447 6.592 17.242 6.799C17.136 6.38 17.079 5.937 17.079 5.5C17.079 2.82 19.287 0.639999 22 0.639999C24.713 0.639999 26.921 2.82 26.921 5.5C26.921 7.144 26.082 8.705 24.769 9.619C28.101 10.779 30.361 13.906 30.361 17.5V25H29.64V17.5C29.64 13.948 27.226 10.896 23.768 10.076C23.618 10.04 23.507 9.913 23.493 9.76C23.478 9.606 23.564 9.46 23.705 9.397C25.197 8.732 26.2 7.166 26.2 5.5C26.2 3.179 24.355 1.36 22 1.36C19.645 1.36 17.8 3.179 17.8 5.5C17.8 6.047 17.906 6.625 18.096 7.109C19.764 7.898 20.921 9.596 20.921 11.561C20.921 13.201 20.101 14.715 18.775 15.622C22.104 16.783 24.361 19.909 24.361 23.501L24.36 31Z" fill="black"/>
<path fill-rule="evenodd" clip-rule="evenodd" d="M16.15 26.7629C17.5931 26.7629 18.7629 25.5931 18.7629 24.15C18.7629 22.7069 17.5931 21.537 16.15 21.537C14.7069 21.537 13.537 22.7069 13.537 24.15C13.537 25.5931 14.7069 26.7629 16.15 26.7629ZM16.15 28.3C18.442 28.3 20.3 26.442 20.3 24.15C20.3 21.858 18.442 20 16.15 20C13.858 20 12 21.858 12 24.15C12 26.442 13.858 28.3 16.15 28.3Z" fill="#F16F39"/>
</g>
<defs>
<clipPath id="clip0_243_2583">
<rect width="32" height="32" fill="white"/>
</clipPath>
</defs>
</svg>
