<svg width="32" height="32" viewBox="0 0 32 32" fill="none" xmlns="http://www.w3.org/2000/svg">
<g clip-path="url(#clip0_240_2423)">
<path d="M11.9996 30.3599C10.5296 30.3599 9.14765 29.5939 8.34665 28.3489C5.70265 28.2399 3.63965 26.1059 3.63965 23.4999C3.63965 22.6009 3.89165 21.7289 4.37265 20.9559C2.67765 19.8869 1.63965 18.0209 1.63965 15.9999C1.63965 13.9789 2.67765 12.1139 4.37265 11.0429C3.89265 10.2709 3.63965 9.39989 3.63965 8.49989C3.63965 5.86989 5.74065 3.72089 8.35165 3.64189C9.15465 2.40189 10.5336 1.63989 11.9996 1.63989C14.4036 1.63989 16.3596 3.59589 16.3596 5.99989V10.6399H24.9996C25.9036 10.6399 26.6397 9.90389 26.6397 8.99989V7.31189H27.3596V8.99989C27.3596 10.3009 26.3006 11.3599 24.9996 11.3599H16.3596V15.6939H26.5V16.4139H16.3596V20.6389H24.9996C26.3016 20.6389 27.3596 21.6979 27.3596 22.9989V24.6869H26.6397V22.9999C26.6397 22.0959 25.9046 21.3599 24.9996 21.3599H16.3596V25.9999C16.3596 28.4039 14.4036 30.3599 11.9996 30.3599ZM8.72065 27.6279L8.86365 27.8139C9.52565 28.9569 10.6986 29.6399 11.9996 29.6399C14.0066 29.6399 15.6396 28.0069 15.6396 25.9999V5.99989C15.6396 3.99289 14.0066 2.35989 11.9996 2.35989C10.6986 2.35989 9.52565 3.04289 8.86265 4.18589L8.74665 4.36489C8.49265 4.86889 8.35965 5.43089 8.35965 5.99989C8.35965 6.63989 8.52765 7.26889 8.84665 7.81989L8.22365 8.17989C7.84165 7.52089 7.63965 6.76589 7.63965 5.99989C7.63965 5.45289 7.74265 4.91189 7.93965 4.40689C5.90065 4.69389 4.35965 6.41989 4.35965 8.49989C4.35965 9.37589 4.64265 10.2219 5.17665 10.9459L5.42265 11.2789L5.05865 11.4759C3.39365 12.3769 2.35965 14.1099 2.35965 15.9999C2.35965 17.7849 3.28165 19.4299 4.78665 20.3649C5.71265 19.2679 7.06065 18.6399 8.49965 18.6399V19.3609C7.29365 19.3609 6.16365 19.8779 5.37465 20.7849L5.17665 21.0549C4.64265 21.7779 4.35965 22.6239 4.35965 23.4999C4.35965 25.7829 6.21665 27.6399 8.49965 27.6399L8.72065 27.6279ZM11.9996 28.3599V27.6399C12.9036 27.6399 13.6396 26.9049 13.6396 25.9999H14.3596C14.3596 27.3019 13.3006 28.3599 11.9996 28.3599ZM8.99965 26.3599C7.42265 26.3599 6.13965 25.0769 6.13965 23.4999H6.85965C6.85965 24.6799 7.81965 25.6399 8.99965 25.6399V26.3599ZM11.9996 24.3599C10.6986 24.3599 9.63965 23.3009 9.63965 21.9999C9.63965 20.6989 10.6986 19.6399 11.9996 19.6399V20.3609C11.0956 20.3609 10.3596 21.0959 10.3596 22.0009C10.3596 22.9059 11.0956 23.6409 11.9996 23.6409V24.3599ZM6.33165 16.6669C5.88565 16.2209 5.63965 15.6289 5.63965 14.9999C5.63965 13.6099 6.60965 12.6399 7.99965 12.6399C8.64065 12.6399 9.21765 12.8779 9.66865 13.3289L9.15865 13.8379C8.84665 13.5249 8.44565 13.3599 7.99965 13.3599C7.00365 13.3599 6.35965 14.0039 6.35965 14.9999C6.35965 15.4369 6.53065 15.8479 6.83965 16.1579L6.33165 16.6669ZM11.9996 12.8599V12.1399C12.9036 12.1399 13.6396 11.4039 13.6396 10.4999C13.6396 9.59589 12.9036 8.85989 11.9996 8.85989V8.13989C13.3006 8.13989 14.3596 9.19889 14.3596 10.4999C14.3596 11.8009 13.3006 12.8599 11.9996 12.8599ZM14.3596 5.99989H13.6396C13.6396 5.09589 12.9036 4.35989 11.9996 4.35989C11.0956 4.35989 10.3596 5.09589 10.3596 5.99989H9.63965C9.63965 4.69889 10.6986 3.63989 11.9996 3.63989C13.3006 3.63989 14.3596 4.69889 14.3596 5.99989Z" fill="black"/>
<path fill-rule="evenodd" clip-rule="evenodd" d="M27 7C28.1046 7 29 6.10457 29 5C29 3.89543 28.1046 3 27 3C25.8954 3 25 3.89543 25 5C25 6.10457 25.8954 7 27 7ZM27 8C28.6569 8 30 6.65685 30 5C30 3.34315 28.6569 2 27 2C25.3431 2 24 3.34315 24 5C24 6.65685 25.3431 8 27 8Z" fill="#F16F39"/>
<path fill-rule="evenodd" clip-rule="evenodd" d="M27 29C28.1046 29 29 28.1046 29 27C29 25.8954 28.1046 25 27 25C25.8954 25 25 25.8954 25 27C25 28.1046 25.8954 29 27 29ZM27 30C28.6569 30 30 28.6569 30 27C30 25.3431 28.6569 24 27 24C25.3431 24 24 25.3431 24 27C24 28.6569 25.3431 30 27 30Z" fill="#F16F39"/>
<path fill-rule="evenodd" clip-rule="evenodd" d="M29 18C30.1046 18 31 17.1046 31 16C31 14.8954 30.1046 14 29 14C27.8954 14 27 14.8954 27 16C27 17.1046 27.8954 18 29 18ZM29 19C30.6569 19 32 17.6569 32 16C32 14.3431 30.6569 13 29 13C27.3431 13 26 14.3431 26 16C26 17.6569 27.3431 19 29 19Z" fill="#F16F39"/>
</g>
<defs>
<clipPath id="clip0_240_2423">
<rect width="32" height="32" fill="white"/>
</clipPath>
</defs>
</svg>
