<svg width="32" height="32" viewBox="0 0 32 32" fill="none" xmlns="http://www.w3.org/2000/svg">
<g clip-path="url(#clip0_272_720)">
<path d="M12 1.64001C11.998 1.64001 11.996 1.64001 11.994 1.64001C10.521 1.64001 9.30302 2.39901 8.75502 3.64001H8.27502C8.27202 3.64001 8.26902 3.64001 8.26602 3.64001C6.99502 3.64001 5.78802 4.06501 4.86802 4.83901C3.89202 5.65901 3.35402 6.79001 3.35202 8.02101C3.35102 9.01601 3.87802 10.118 4.37702 10.812C2.15402 11.582 0.643019 13.445 0.640019 15.5C0.637019 17.546 2.14702 19.41 4.37402 20.187C3.86802 20.879 3.33002 21.975 3.32902 22.953C3.32602 25.379 5.54402 27.356 8.27602 27.361H8.75602C9.29902 28.599 10.52 29.359 12 29.361C12.002 29.361 12.004 29.361 12.007 29.361C13.979 29.361 15.358 27.98 15.361 26.001V5.00001C15.363 3.02501 13.982 1.64301 12 1.64001ZM14.64 13.64H12.36V7.30501H11.64V13.64H10H9.99802C9.20002 13.64 8.64102 14.199 8.64002 15V15.64H6.30502C6.14602 15.065 5.62402 14.64 5.00002 14.64C4.25002 14.64 3.64002 15.25 3.64002 16C3.64002 16.75 4.25002 17.36 5.00002 17.36C5.62502 17.36 6.14702 16.934 6.30502 16.36H8.64002V22.194C8.06502 22.353 7.64002 22.875 7.64002 23.5C7.64002 24.25 8.25002 24.86 9.00002 24.86C9.75002 24.86 10.36 24.25 10.36 23.5C10.36 22.875 9.93502 22.353 9.36002 22.194V15C9.36102 14.599 9.59902 14.359 9.99902 14.359H10H14.64V25.998C14.637 27.454 13.732 28.458 12.36 28.608V19.305H11.64V28.615C10.537 28.501 9.68902 27.873 9.34002 26.88C9.28902 26.736 9.15302 26.64 9.00002 26.64H8.27602C6.24002 26.637 4.04602 25.227 4.04802 22.954C4.05002 21.988 4.76202 20.745 5.25402 20.255C5.34602 20.164 5.38102 20.03 5.34702 19.905C5.31302 19.78 5.21502 19.683 5.09002 19.651C2.89102 19.085 1.35702 17.378 1.36002 15.5C1.36302 13.624 2.88202 11.927 5.05502 11.359H7.69502C7.85402 11.934 8.37602 12.359 9.00002 12.359C9.75002 12.359 10.36 11.749 10.36 10.999C10.36 10.249 9.75002 9.64001 9.00002 9.64001C8.37502 9.64001 7.85402 10.065 7.69502 10.64H5.16202C4.68502 10.099 4.07002 8.94901 4.07102 8.02201C4.07302 7.00601 4.52002 6.07201 5.33202 5.39001C6.11102 4.73501 7.18102 4.36001 8.26802 4.36001C8.27002 4.36001 8.27302 4.36001 8.27602 4.36001H9.00002C9.15202 4.36001 9.28802 4.26401 9.33902 4.12101C9.73102 3.01801 10.723 2.36001 11.994 2.36001C11.996 2.36001 11.997 2.36001 11.999 2.36001C13.582 2.36301 14.643 3.42301 14.64 5.00001V13.64ZM9.00002 22.86C9.35302 22.86 9.64002 23.147 9.64002 23.5C9.64002 23.853 9.35302 24.14 9.00002 24.14C8.64702 24.14 8.36002 23.853 8.36002 23.5C8.36002 23.147 8.64702 22.86 9.00002 22.86ZM5.64002 16C5.64002 16.353 5.35302 16.64 5.00002 16.64C4.64702 16.64 4.36002 16.353 4.36002 16C4.36002 15.647 4.64702 15.36 5.00002 15.36C5.35302 15.36 5.64002 15.647 5.64002 16ZM8.36002 11C8.36002 10.647 8.64702 10.36 9.00002 10.36C9.35302 10.36 9.64002 10.647 9.64002 11C9.64002 11.353 9.35302 11.64 9.00002 11.64C8.64702 11.64 8.36002 11.353 8.36002 11ZM31.36 15.5C31.362 13.454 29.852 11.591 27.626 10.813C28.133 10.121 28.67 9.02501 28.672 8.04601C28.674 6.81501 28.132 5.68101 27.146 4.85301C26.229 4.08301 24.983 3.64101 23.725 3.63901H23.245C22.701 2.40101 21.481 1.64101 20.002 1.63901C19.999 1.63901 19.997 1.63901 19.994 1.63901C19.022 1.63901 18.186 1.96201 17.576 2.57201C16.965 3.18501 16.642 4.02301 16.64 5.00001V25.999C16.637 27.975 18.018 29.356 19.999 29.36C20.002 29.36 20.004 29.36 20.006 29.36C21.479 29.36 22.696 28.6 23.244 27.36H23.723C23.727 27.36 23.73 27.36 23.733 27.36C25.004 27.36 26.211 26.934 27.131 26.161C28.108 25.341 28.646 24.211 28.648 22.979C28.649 21.984 28.122 20.881 27.623 20.188C29.847 19.418 31.357 17.555 31.36 15.5ZM20 12.36C20.353 12.36 20.64 12.647 20.64 13C20.64 13.353 20.353 13.64 20 13.64C19.647 13.64 19.36 13.353 19.36 13C19.36 12.647 19.647 12.36 20 12.36ZM26.946 19.64H24.305C24.146 19.065 23.624 18.64 22.999 18.64C22.249 18.64 21.639 19.25 21.639 20C21.639 20.75 22.249 21.36 22.999 21.36C23.623 21.36 24.146 20.935 24.305 20.36H26.838C27.314 20.901 27.929 22.051 27.927 22.978C27.926 23.994 27.479 24.928 26.667 25.609C25.886 26.266 24.802 26.619 23.724 26.639H23C22.848 26.639 22.712 26.736 22.661 26.878C22.268 27.982 21.276 28.639 20.006 28.639C20.004 28.639 20.001 28.639 20.001 28.639C19.22 28.638 18.556 28.387 18.082 27.914C17.608 27.441 17.358 26.78 17.36 26V17.36H19.639V23.694H20.359V17.36H21.998H22.001C22.8 17.36 23.357 16.801 23.359 16V15.36H25.693C25.852 15.935 26.374 16.36 26.999 16.36C27.749 16.36 28.359 15.75 28.359 15C28.359 14.25 27.749 13.64 26.999 13.64C26.374 13.64 25.852 14.065 25.693 14.64H23.36V8.80501H22.64V16C22.64 16.401 22.402 16.641 22.002 16.641H22H17.36V5.00001C17.361 4.21901 17.612 3.55501 18.085 3.08201C18.482 2.68401 19.018 2.45501 19.64 2.38901V11.694C19.065 11.853 18.64 12.375 18.64 12.999C18.64 13.749 19.25 14.359 20 14.359C20.75 14.359 21.36 13.749 21.36 12.999C21.36 12.375 20.935 11.853 20.36 11.694V2.38401C21.463 2.49901 22.311 3.12601 22.66 4.12001C22.711 4.26401 22.848 4.36001 23 4.36001H23.724C24.816 4.36101 25.894 4.74301 26.683 5.40501C27.503 6.09401 27.954 7.03101 27.952 8.04601C27.951 9.01201 27.238 10.255 26.747 10.745C26.655 10.836 26.62 10.97 26.653 11.095C26.687 11.22 26.786 11.317 26.911 11.349C29.109 11.916 30.643 13.623 30.64 15.5C30.638 17.374 29.12 19.07 26.946 19.64ZM23.64 20C23.64 20.353 23.353 20.64 23 20.64C22.647 20.64 22.36 20.353 22.36 20C22.36 19.647 22.647 19.36 23 19.36C23.353 19.36 23.64 19.647 23.64 20ZM26.36 15C26.36 14.647 26.647 14.36 27 14.36C27.353 14.36 27.64 14.647 27.64 15C27.64 15.353 27.353 15.64 27 15.64C26.647 15.64 26.36 15.353 26.36 15Z" fill="black"/>
<path fill-rule="evenodd" clip-rule="evenodd" d="M20 26.2C20.6627 26.2 21.2 25.6627 21.2 25C21.2 24.3373 20.6627 23.8 20 23.8C19.3373 23.8 18.8 24.3373 18.8 25C18.8 25.6627 19.3373 26.2 20 26.2ZM20 27C21.1046 27 22 26.1046 22 25C22 23.8954 21.1046 23 20 23C18.8954 23 18 23.8954 18 25C18 26.1046 18.8954 27 20 27Z" fill="#F16F39"/>
<path fill-rule="evenodd" clip-rule="evenodd" d="M12 19.2C12.6627 19.2 13.2 18.6627 13.2 18C13.2 17.3373 12.6627 16.8 12 16.8C11.3373 16.8 10.8 17.3373 10.8 18C10.8 18.6627 11.3373 19.2 12 19.2ZM12 20C13.1046 20 14 19.1046 14 18C14 16.8954 13.1046 16 12 16C10.8954 16 10 16.8954 10 18C10 19.1046 10.8954 20 12 20Z" fill="#F16F39"/>
<path fill-rule="evenodd" clip-rule="evenodd" d="M12 7.2C12.6627 7.2 13.2 6.66274 13.2 6C13.2 5.33726 12.6627 4.8 12 4.8C11.3373 4.8 10.8 5.33726 10.8 6C10.8 6.66274 11.3373 7.2 12 7.2ZM12 8C13.1046 8 14 7.10457 14 6C14 4.89543 13.1046 4 12 4C10.8954 4 10 4.89543 10 6C10 7.10457 10.8954 8 12 8Z" fill="#F16F39"/>
<path fill-rule="evenodd" clip-rule="evenodd" d="M23 8.7C23.6627 8.7 24.2 8.16274 24.2 7.5C24.2 6.83726 23.6627 6.3 23 6.3C22.3373 6.3 21.8 6.83726 21.8 7.5C21.8 8.16274 22.3373 8.7 23 8.7ZM23 9.5C24.1046 9.5 25 8.60457 25 7.5C25 6.39543 24.1046 5.5 23 5.5C21.8954 5.5 21 6.39543 21 7.5C21 8.60457 21.8954 9.5 23 9.5Z" fill="#F16F39"/>
</g>
<defs>
<clipPath id="clip0_272_720">
<rect width="32" height="32" fill="white"/>
</clipPath>
</defs>
</svg>
