<svg width="32" height="32" viewBox="0 0 32 32" fill="none" xmlns="http://www.w3.org/2000/svg">
<g clip-path="url(#clip0_268_3046)">
<path d="M6.36 24C6.36 22.698 5.301 21.64 4 21.64C2.699 21.64 1.64 22.698 1.64 24C1.64 25.302 2.699 26.36 4 26.36C5.301 26.36 6.36 25.302 6.36 24ZM2.36 24C2.36 23.096 3.096 22.36 4 22.36C4.904 22.36 5.64 23.096 5.64 24C5.64 24.904 4.904 25.64 4 25.64C3.096 25.64 2.36 24.904 2.36 24ZM14.36 24C14.36 22.698 13.301 21.64 12 21.64C10.699 21.64 9.64 22.698 9.64 24C9.64 25.302 10.699 26.36 12 26.36C13.301 26.36 14.36 25.302 14.36 24ZM10.36 24C10.36 23.096 11.096 22.36 12 22.36C12.904 22.36 13.64 23.095 13.64 24C13.64 24.905 12.904 25.64 12 25.64C11.096 25.64 10.36 24.904 10.36 24ZM22.36 24C22.36 22.698 21.301 21.64 20 21.64C18.699 21.64 17.64 22.699 17.64 24C17.64 25.301 18.699 26.36 20 26.36C21.301 26.36 22.36 25.302 22.36 24ZM18.36 24C18.36 23.096 19.095 22.36 20 22.36C20.905 22.36 21.64 23.095 21.64 24C21.64 24.905 20.905 25.64 20 25.64C19.095 25.64 18.36 24.904 18.36 24ZM30.36 24C30.36 22.698 29.301 21.64 28 21.64C26.699 21.64 25.64 22.699 25.64 24C25.64 25.301 26.699 26.36 28 26.36C29.301 26.36 30.36 25.302 30.36 24ZM26.36 24C26.36 23.096 27.095 22.36 28 22.36C28.905 22.36 29.64 23.095 29.64 24C29.64 24.905 28.905 25.64 28 25.64C27.095 25.64 26.36 24.904 26.36 24ZM31 19.64V20.361H1V19.64H31ZM1 27.64H31V28.361H1V27.64ZM12 18.36H20C20.199 18.36 20.36 18.199 20.36 18V10C20.36 9.801 20.199 9.64 20 9.64H12C11.801 9.64 11.64 9.801 11.64 10V18C11.64 18.199 11.801 18.36 12 18.36ZM12.36 10.36H19.64V17.64H12.36V10.36ZM22 11.36H30C30.199 11.36 30.36 11.199 30.36 11V3C30.36 2.801 30.199 2.64 30 2.64H22C21.801 2.64 21.64 2.801 21.64 3V11C21.64 11.199 21.801 11.36 22 11.36ZM22.36 5.149L24.149 3.36H26.13L22.36 7.13V5.149ZM22.36 8.149L27.149 3.36H29.13L22.36 10.13V8.149ZM29.64 8.851L27.851 10.64H25.87L29.64 6.87V8.851ZM29.64 5.851L24.851 10.64H22.87L29.64 3.87V5.851ZM28.869 10.64L29.64 9.87V10.641L28.869 10.64ZM23.131 3.36L22.36 4.13V3.36H23.131ZM2 18.36H10C10.199 18.36 10.36 18.199 10.36 18V10C10.36 9.801 10.199 9.64 10 9.64H2C1.801 9.64 1.64 9.801 1.64 10V18C1.64 18.199 1.801 18.36 2 18.36ZM2.36 10.36H9.64V17.64H2.36V10.36Z" fill="black"/>
<path fill-rule="evenodd" clip-rule="evenodd" d="M4.09998 25.5C4.9284 25.5 5.59998 24.8284 5.59998 24C5.59998 23.1716 4.9284 22.5 4.09998 22.5C3.27155 22.5 2.59998 23.1716 2.59998 24C2.59998 24.8284 3.27155 25.5 4.09998 25.5ZM4.09998 26.5C5.48069 26.5 6.59998 25.3807 6.59998 24C6.59998 22.6193 5.48069 21.5 4.09998 21.5C2.71926 21.5 1.59998 22.6193 1.59998 24C1.59998 25.3807 2.71926 26.5 4.09998 26.5Z" fill="#F16F39"/>
<path fill-rule="evenodd" clip-rule="evenodd" d="M12 25.5C12.8284 25.5 13.5 24.8284 13.5 24C13.5 23.1716 12.8284 22.5 12 22.5C11.1716 22.5 10.5 23.1716 10.5 24C10.5 24.8284 11.1716 25.5 12 25.5ZM12 26.5C13.3807 26.5 14.5 25.3807 14.5 24C14.5 22.6193 13.3807 21.5 12 21.5C10.6193 21.5 9.5 22.6193 9.5 24C9.5 25.3807 10.6193 26.5 12 26.5Z" fill="#F16F39"/>
<path fill-rule="evenodd" clip-rule="evenodd" d="M20 25.5C20.8284 25.5 21.5 24.8284 21.5 24C21.5 23.1716 20.8284 22.5 20 22.5C19.1716 22.5 18.5 23.1716 18.5 24C18.5 24.8284 19.1716 25.5 20 25.5ZM20 26.5C21.3807 26.5 22.5 25.3807 22.5 24C22.5 22.6193 21.3807 21.5 20 21.5C18.6193 21.5 17.5 22.6193 17.5 24C17.5 25.3807 18.6193 26.5 20 26.5Z" fill="#F16F39"/>
<path fill-rule="evenodd" clip-rule="evenodd" d="M28 25.5C28.8284 25.5 29.5 24.8284 29.5 24C29.5 23.1716 28.8284 22.5 28 22.5C27.1716 22.5 26.5 23.1716 26.5 24C26.5 24.8284 27.1716 25.5 28 25.5ZM28 26.5C29.3807 26.5 30.5 25.3807 30.5 24C30.5 22.6193 29.3807 21.5 28 21.5C26.6193 21.5 25.5 22.6193 25.5 24C25.5 25.3807 26.6193 26.5 28 26.5Z" fill="#F16F39"/>
</g>
<defs>
<clipPath id="clip0_268_3046">
<rect width="32" height="32" fill="white"/>
</clipPath>
</defs>
</svg>
