<svg width="32" height="32" viewBox="0 0 32 32" fill="none" xmlns="http://www.w3.org/2000/svg">
<g clip-path="url(#clip0_55_17922)">
<path d="M16 31.36C14.423 31.36 13.14 30.077 13.14 28.5C13.14 27.045 14.232 25.841 15.639 25.663L15.626 21.001C15.626 20.096 14.89 19.36 13.986 19.36H7.50001C3.71701 19.36 0.640015 16.282 0.640015 12.5C0.640015 8.71801 3.71701 5.64001 7.50001 5.64001H8.73901C10.369 2.55001 13.514 0.640015 17 0.640015C22.04 0.640015 26.163 4.64501 26.354 9.64001H26.5C29.18 9.64001 31.36 11.82 31.36 14.5C31.36 17.18 29.179 19.36 26.5 19.36L24.002 19.374L23.998 18.653L26.498 18.639C28.783 18.639 30.64 16.782 30.64 14.499C30.64 12.216 28.784 10.359 26.5 10.359H26C25.801 10.359 25.64 10.198 25.64 9.99901C25.64 5.23501 21.764 1.35901 17 1.35901C13.715 1.35901 10.758 3.19901 9.28101 6.16001C9.22001 6.28301 9.09601 6.36001 8.95901 6.36001H7.50001C4.11401 6.36001 1.36001 9.11401 1.36001 12.5C1.36001 15.886 4.11401 18.64 7.50001 18.64H13.986C15.287 18.64 16.346 19.699 16.346 21L16.359 25.662C17.768 25.84 18.86 27.045 18.86 28.5C18.86 30.077 17.577 31.36 16 31.36ZM16 26.36C14.82 26.36 13.86 27.32 13.86 28.5C13.86 29.68 14.82 30.64 16 30.64C17.18 30.64 18.14 29.68 18.14 28.5C18.14 27.32 17.18 26.36 16 26.36ZM26 28.36C25.938 28.36 25.878 28.344 25.822 28.313C25.71 28.249 25.64 28.13 25.64 28V25.36H22C20.698 25.36 19.64 24.301 19.64 23V17.338C18.233 17.16 17.14 15.955 17.14 14.5C17.14 12.923 18.423 11.64 20 11.64C21.577 11.64 22.86 12.923 22.86 14.5C22.86 15.955 21.767 17.16 20.36 17.338V23C20.36 23.904 21.095 24.64 22 24.64H25.64V22C25.64 21.87 25.71 21.751 25.823 21.687C25.937 21.623 26.073 21.625 26.186 21.692L31.186 24.692C31.294 24.757 31.361 24.875 31.361 25.001C31.361 25.127 31.295 25.244 31.186 25.31L26.186 28.31C26.128 28.343 26.064 28.36 26 28.36ZM26.36 22.636V27.365L30.3 25L26.36 22.636ZM20 12.36C18.82 12.36 17.86 13.32 17.86 14.5C17.86 15.68 18.82 16.64 20 16.64C21.18 16.64 22.14 15.68 22.14 14.5C22.14 13.32 21.18 12.36 20 12.36ZM6.00001 27.86H1.00001C0.801015 27.86 0.640015 27.699 0.640015 27.5V22.5C0.640015 22.301 0.801015 22.14 1.00001 22.14H6.00001C6.19901 22.14 6.36001 22.301 6.36001 22.5V24.64H10C10.904 24.64 11.64 23.905 11.64 23V21H12.36V23C12.36 24.302 11.301 25.36 10 25.36H6.36001V27.5C6.36001 27.699 6.19901 27.86 6.00001 27.86ZM1.36001 27.14H5.64001V22.86H1.36001V27.14Z" fill="black"/>
<path fill-rule="evenodd" clip-rule="evenodd" d="M20 16.5C21.1046 16.5 22 15.6046 22 14.5C22 13.3954 21.1046 12.5 20 12.5C18.8954 12.5 18 13.3954 18 14.5C18 15.6046 18.8954 16.5 20 16.5ZM20 17.5C21.6569 17.5 23 16.1569 23 14.5C23 12.8431 21.6569 11.5 20 11.5C18.3431 11.5 17 12.8431 17 14.5C17 16.1569 18.3431 17.5 20 17.5Z" fill="#F16F39"/>
<path fill-rule="evenodd" clip-rule="evenodd" d="M16 30.5C17.1046 30.5 18 29.6046 18 28.5C18 27.3954 17.1046 26.5 16 26.5C14.8954 26.5 14 27.3954 14 28.5C14 29.6046 14.8954 30.5 16 30.5ZM16 31.5C17.6569 31.5 19 30.1569 19 28.5C19 26.8431 17.6569 25.5 16 25.5C14.3431 25.5 13 26.8431 13 28.5C13 30.1569 14.3431 31.5 16 31.5Z" fill="#F16F39"/>
</g>
<defs>
<clipPath id="clip0_55_17922">
<rect width="32" height="32" fill="white"/>
</clipPath>
</defs>
</svg>
