<svg width="32" height="32" viewBox="0 0 32 32" fill="none" xmlns="http://www.w3.org/2000/svg">
<g clip-path="url(#clip0_263_2955)">
<path d="M7.00001 27.64H22V28.361H7.00001C3.49301 28.361 0.640015 25.508 0.640015 22.002C0.640015 18.494 3.49301 15.641 7.00001 15.641H10V16.361H7.00001C3.89001 16.361 1.36001 18.892 1.36001 22.002C1.36001 25.11 3.89001 27.64 7.00001 27.64ZM25 15.64H22V16.36H25C28.507 16.36 31.36 13.507 31.36 10C31.36 6.49301 28.506 3.64101 25 3.64101H10V4.36101H25C28.11 4.36101 30.64 6.891 30.64 10.001C30.64 13.11 28.11 15.64 25 15.64Z" fill="black"/>
<path d="M28.783 27.04C29.149 26.617 29.357 26.074 29.357 25.5C29.357 24.198 28.298 23.14 26.998 23.14C25.696 23.14 24.638 24.199 24.638 25.5C24.638 26.074 24.846 26.617 25.212 27.04C23.67 27.735 22.638 29.284 22.638 30.999V31.5H23.359V30.999C23.359 29.394 24.446 27.961 26.002 27.516C26.138 27.478 26.238 27.364 26.259 27.225C26.28 27.085 26.219 26.947 26.101 26.87C25.636 26.563 25.358 26.052 25.358 25.5C25.358 24.596 26.093 23.86 26.998 23.86C27.901 23.86 28.637 24.595 28.637 25.5C28.637 26.052 28.36 26.563 27.896 26.869C27.778 26.946 27.716 27.085 27.738 27.224C27.759 27.363 27.859 27.477 27.995 27.515C29.552 27.96 30.639 29.393 30.639 30.998V31.5H31.36V30.999C31.358 29.285 30.325 27.735 28.783 27.04Z" fill="black"/>
<path d="M15.5009 13.4374C15.5532 13.3082 15.6429 13.1975 15.7585 13.1196C15.8741 13.0416 16.0103 13 16.1497 13C16.2892 13 16.4254 13.0416 16.541 13.1196C16.6566 13.1975 16.7463 13.3082 16.7986 13.4374C17.3161 13.5797 17.7726 13.888 18.0979 14.3149C18.4232 14.7418 18.5995 15.2636 18.5995 15.8004V17.4441L19.2406 18.4058C19.2758 18.4586 19.296 18.5198 19.299 18.5831C19.3021 18.6464 19.288 18.7093 19.2581 18.7652C19.2282 18.821 19.1837 18.8677 19.1293 18.9003C19.075 18.9329 19.0128 18.95 18.9494 18.95H17.3624C17.3202 19.2416 17.1745 19.5082 16.9517 19.701C16.729 19.8939 16.4443 20 16.1497 20C15.8552 20 15.5704 19.8939 15.3477 19.701C15.125 19.5082 14.9793 19.2416 14.9371 18.95H13.35C13.2867 18.95 13.2245 18.9329 13.1701 18.9003C13.1158 18.8677 13.0713 18.821 13.0414 18.7652C13.0115 18.7093 12.9974 18.6464 13.0004 18.5831C13.0035 18.5198 13.0237 18.4586 13.0589 18.4058L13.7 17.4441V15.8004C13.7 14.6721 14.4629 13.7216 15.5009 13.4374ZM15.6549 18.95C15.691 19.0525 15.7581 19.1411 15.8467 19.2039C15.9354 19.2666 16.0413 19.3003 16.1499 19.3003C16.2585 19.3003 16.3645 19.2666 16.4531 19.2039C16.5418 19.1411 16.6088 19.0525 16.6449 18.95H15.6549ZM16.1497 14.0506C15.6857 14.0506 15.2406 14.2349 14.9124 14.5631C14.5843 14.8912 14.3999 15.3363 14.3999 15.8004V17.5502C14.3999 17.6193 14.3795 17.6869 14.3411 17.7444L14.0041 18.2501H18.295L17.958 17.7444C17.9198 17.6869 17.8994 17.6193 17.8996 17.5502V15.8004C17.8996 15.3363 17.7152 14.8912 17.387 14.5631C17.0589 14.2349 16.6138 14.0506 16.1497 14.0506Z" fill="black"/>
<path fill-rule="evenodd" clip-rule="evenodd" d="M4.5 6.51333C5.78866 6.51333 6.83333 5.46866 6.83333 4.17999C6.83333 2.89133 5.78866 1.84666 4.5 1.84666C3.21134 1.84666 2.16667 2.89133 2.16667 4.17999C2.16667 5.46866 3.21134 6.51333 4.5 6.51333ZM4.5 7.67999C6.433 7.67999 8 6.11299 8 4.17999C8 2.247 6.433 0.679993 4.5 0.679993C2.567 0.679993 1 2.247 1 4.17999C1 6.11299 2.567 7.67999 4.5 7.67999Z" fill="#F16F39"/>
</g>
<defs>
<clipPath id="clip0_263_2955">
<rect width="32" height="32" fill="white"/>
</clipPath>
</defs>
</svg>
