<svg width="32" height="32" viewBox="0 0 32 32" fill="none" xmlns="http://www.w3.org/2000/svg">
<g clip-path="url(#clip0_241_2546)">
<path d="M16.36 8.48171C16.2417 8.4938 16.1216 8.5 16 8.5C15.8785 8.5 15.7584 8.4938 15.64 8.48171V12.5183C15.7584 12.5062 15.8785 12.5 16 12.5C16.1216 12.5 16.2417 12.5062 16.36 12.5183V8.48171Z" fill="black"/>
<path d="M16.36 19.4817C16.2417 19.4938 16.1216 19.5 16 19.5C15.8785 19.5 15.7584 19.4938 15.64 19.4817V23.5183C15.7584 23.5062 15.8785 23.5 16 23.5C16.1216 23.5 16.2417 23.5062 16.36 23.5183V19.4817Z" fill="black"/>
<path d="M19.4816 26.639C19.4938 26.7577 19.5 26.8781 19.5 27C19.5 27.1215 19.4938 27.2416 19.4817 27.36H23.659V26.639H19.4816Z" fill="black"/>
<path d="M12.5183 5.36C12.5062 5.24165 12.5 5.12155 12.5 5C12.5 4.87845 12.5062 4.75835 12.5183 4.64H8.34101V5.36H12.5183Z" fill="black"/>
<path fill-rule="evenodd" clip-rule="evenodd" d="M1.64001 27C1.64001 28.852 3.14701 30.36 5.00001 30.36C6.85301 30.36 8.36001 28.853 8.36001 27C8.36001 25.147 6.85301 23.64 5.00001 23.64C3.14701 23.64 1.64001 25.148 1.64001 27ZM2.36001 27C2.36001 25.544 3.54401 24.36 5.00001 24.36C6.45601 24.36 7.64001 25.544 7.64001 27C7.64001 28.456 6.45601 29.64 5.00001 29.64C3.54401 29.64 2.36001 28.456 2.36001 27Z" fill="black"/>
<path fill-rule="evenodd" clip-rule="evenodd" d="M23.64 16C23.64 17.852 25.147 19.36 27 19.36C28.853 19.36 30.36 17.853 30.36 16C30.36 14.147 28.852 12.64 27 12.64C25.148 12.64 23.64 14.148 23.64 16ZM24.36 16C24.36 14.545 25.544 13.36 27 13.36C28.456 13.36 29.64 14.544 29.64 16C29.64 17.456 28.456 18.64 27 18.64C25.544 18.64 24.36 17.456 24.36 16Z" fill="black"/>
<path fill-rule="evenodd" clip-rule="evenodd" d="M1.64001 16C1.64001 17.852 3.14701 19.36 5.00001 19.36C6.85301 19.36 8.36001 17.853 8.36001 16C8.36001 14.147 6.85301 12.64 5.00001 12.64C3.14701 12.64 1.64001 14.148 1.64001 16ZM2.36001 16C2.36001 14.545 3.54401 13.36 5.00001 13.36C6.45601 13.36 7.64001 14.544 7.64001 16C7.64001 17.456 6.45501 18.64 5.00001 18.64C3.54501 18.64 2.36001 17.456 2.36001 16Z" fill="black"/>
<path fill-rule="evenodd" clip-rule="evenodd" d="M23.64 5C23.64 6.853 25.147 8.36 27 8.36C28.853 8.36 30.36 6.853 30.36 5C30.36 3.147 28.853 1.64 27 1.64C25.147 1.64 23.64 3.147 23.64 5ZM24.36 5C24.36 3.545 25.544 2.36 27 2.36C28.456 2.36 29.64 3.544 29.64 5C29.64 6.456 28.456 7.64 27 7.64C25.544 7.64 24.36 6.455 24.36 5Z" fill="black"/>
<path fill-rule="evenodd" clip-rule="evenodd" d="M5 7.33333C6.28866 7.33333 7.33333 6.28866 7.33333 5C7.33333 3.71134 6.28866 2.66667 5 2.66667C3.71134 2.66667 2.66667 3.71134 2.66667 5C2.66667 6.28866 3.71134 7.33333 5 7.33333ZM5 8.5C6.933 8.5 8.5 6.933 8.5 5C8.5 3.067 6.933 1.5 5 1.5C3.067 1.5 1.5 3.067 1.5 5C1.5 6.933 3.067 8.5 5 8.5Z" fill="#F16F39"/>
<path fill-rule="evenodd" clip-rule="evenodd" d="M16 7.33333C17.2887 7.33333 18.3333 6.28866 18.3333 5C18.3333 3.71134 17.2887 2.66667 16 2.66667C14.7113 2.66667 13.6667 3.71134 13.6667 5C13.6667 6.28866 14.7113 7.33333 16 7.33333ZM16 8.5C17.933 8.5 19.5 6.933 19.5 5C19.5 3.067 17.933 1.5 16 1.5C14.067 1.5 12.5 3.067 12.5 5C12.5 6.933 14.067 8.5 16 8.5Z" fill="#F16F39"/>
<path fill-rule="evenodd" clip-rule="evenodd" d="M16 18.3333C17.2887 18.3333 18.3333 17.2887 18.3333 16C18.3333 14.7113 17.2887 13.6667 16 13.6667C14.7113 13.6667 13.6667 14.7113 13.6667 16C13.6667 17.2887 14.7113 18.3333 16 18.3333ZM16 19.5C17.933 19.5 19.5 17.933 19.5 16C19.5 14.067 17.933 12.5 16 12.5C14.067 12.5 12.5 14.067 12.5 16C12.5 17.933 14.067 19.5 16 19.5Z" fill="#F16F39"/>
<path fill-rule="evenodd" clip-rule="evenodd" d="M16 29.3333C17.2887 29.3333 18.3333 28.2887 18.3333 27C18.3333 25.7113 17.2887 24.6667 16 24.6667C14.7113 24.6667 13.6667 25.7113 13.6667 27C13.6667 28.2887 14.7113 29.3333 16 29.3333ZM16 30.5C17.933 30.5 19.5 28.933 19.5 27C19.5 25.067 17.933 23.5 16 23.5C14.067 23.5 12.5 25.067 12.5 27C12.5 28.933 14.067 30.5 16 30.5Z" fill="#F16F39"/>
<path fill-rule="evenodd" clip-rule="evenodd" d="M27 29.3333C28.2887 29.3333 29.3333 28.2887 29.3333 27C29.3333 25.7113 28.2887 24.6667 27 24.6667C25.7113 24.6667 24.6667 25.7113 24.6667 27C24.6667 28.2887 25.7113 29.3333 27 29.3333ZM27 30.5C28.933 30.5 30.5 28.933 30.5 27C30.5 25.067 28.933 23.5 27 23.5C25.067 23.5 23.5 25.067 23.5 27C23.5 28.933 25.067 30.5 27 30.5Z" fill="#F16F39"/>
</g>
<defs>
<clipPath id="clip0_241_2546">
<rect width="32" height="32" fill="white"/>
</clipPath>
</defs>
</svg>
