<svg width="32" height="32" viewBox="0 0 32 32" fill="none" xmlns="http://www.w3.org/2000/svg">
<g clip-path="url(#clip0_55_17927)">
<path d="M21.36 31H20.64L20.639 29.428C20.639 27.476 19.385 25.724 17.518 25.068C17.382 25.02 17.289 24.897 17.278 24.754C17.268 24.611 17.343 24.476 17.471 24.409C18.544 23.85 19.21 22.763 19.21 21.572C19.21 19.801 17.77 18.361 15.999 18.361C14.228 18.361 12.787 19.801 12.787 21.572C12.787 22.763 13.454 23.851 14.527 24.41C14.654 24.476 14.73 24.612 14.72 24.755C14.71 24.899 14.616 25.022 14.481 25.069C12.615 25.725 11.361 27.477 11.361 29.428L11.359 31H10.639V29.428C10.639 27.476 9.38402 25.724 7.51701 25.068C7.38201 25.02 7.28801 24.897 7.27801 24.754C7.26801 24.611 7.34301 24.476 7.47001 24.409C8.54301 23.85 9.20901 22.763 9.20901 21.572C9.20901 19.801 7.76801 18.361 5.99801 18.361C4.22702 18.361 2.78601 19.801 2.78601 21.572C2.78601 22.763 3.45301 23.851 4.52601 24.41C4.65301 24.476 4.72901 24.612 4.71901 24.755C4.70901 24.899 4.61501 25.022 4.48001 25.069C2.61401 25.725 1.36001 27.477 1.36001 29.428V31H0.640015V29.428C0.640015 27.406 1.80201 25.57 3.59401 24.665C2.63801 23.928 2.06701 22.795 2.06701 21.571C2.06701 19.403 3.83101 17.639 5.99901 17.639C8.16601 17.639 9.93001 19.403 9.93001 21.571C9.93001 22.794 9.35902 23.925 8.40402 24.663C9.60602 25.27 10.526 26.296 11 27.517C11.475 26.297 12.393 25.272 13.595 24.665C12.639 23.928 12.068 22.795 12.068 21.571C12.068 19.403 13.832 17.639 16 17.639C18.168 17.639 19.932 19.403 19.932 21.571C19.932 22.794 19.361 23.925 18.405 24.663C19.608 25.27 20.527 26.297 21.002 27.517C21.477 26.296 22.396 25.271 23.597 24.664C22.641 23.927 22.07 22.794 22.07 21.57C22.07 19.402 23.834 17.638 26.002 17.638C28.17 17.638 29.934 19.402 29.934 21.57C29.934 22.793 29.363 23.924 28.408 24.662C30.201 25.567 31.364 27.404 31.364 29.427V31H30.64V29.428C30.64 27.476 29.386 25.724 27.519 25.068C27.383 25.02 27.29 24.897 27.279 24.754C27.269 24.611 27.344 24.476 27.472 24.409C28.544 23.85 29.21 22.763 29.21 21.572C29.21 19.801 27.77 18.361 25.999 18.361C24.228 18.361 22.788 19.801 22.788 21.572C22.788 22.764 23.454 23.851 24.527 24.41C24.655 24.476 24.73 24.612 24.72 24.755C24.709 24.899 24.616 25.022 24.48 25.069C22.614 25.725 21.361 27.477 21.361 29.428L21.36 31ZM31 15.36H16V14.64H30.64V1.36001H14.36V7.36801H17.039C17.789 7.36801 18.399 7.97801 18.399 8.72801C18.399 9.47801 17.789 10.088 17.039 10.088H10.36V15H9.64001V9.72801C9.64001 9.52901 9.80101 9.36801 10 9.36801H17.039C17.392 9.36801 17.679 9.08101 17.679 8.72801C17.679 8.37501 17.392 8.08802 17.039 8.08802H7.61601C7.45002 8.08802 7.30601 7.97501 7.26601 7.81401C7.22701 7.65201 7.30301 7.48501 7.45001 7.40801C8.51901 6.85001 9.18401 5.76301 9.18401 4.57201C9.18401 2.80101 7.75501 1.36001 6.00001 1.36001C4.22601 1.36001 2.78201 2.80101 2.78201 4.57201C2.78201 5.76401 3.44701 6.85101 4.51701 7.40901C4.64401 7.47501 4.72002 7.61101 4.70901 7.75401C4.69901 7.89702 4.60501 8.02101 4.47001 8.06801C2.61001 8.72401 1.36001 10.476 1.36001 12.428V15H0.640015V12.428C0.640015 10.406 1.79901 8.57001 3.58501 7.66501C2.63201 6.92801 2.06201 5.79501 2.06201 4.57201C2.06201 2.40401 3.82901 0.640015 6.00001 0.640015C8.15201 0.640015 9.90301 2.40401 9.90301 4.57201C9.90301 5.64102 9.46801 6.64102 8.72201 7.36801H13.64V1.00001C13.64 0.801015 13.801 0.640015 14 0.640015H31C31.199 0.640015 31.36 0.801015 31.36 1.00001V15C31.36 15.199 31.199 15.36 31 15.36ZM20 5.36001H16V4.64001H20V5.36001ZM21 3.36001H16V2.64001H21V3.36001Z" fill="black"/>
<path fill-rule="evenodd" clip-rule="evenodd" d="M26 11C27.1046 11 28 10.1046 28 9C28 7.89543 27.1046 7 26 7C24.8954 7 24 7.89543 24 9C24 10.1046 24.8954 11 26 11ZM26 12C27.6569 12 29 10.6569 29 9C29 7.34315 27.6569 6 26 6C24.3431 6 23 7.34315 23 9C23 10.6569 24.3431 12 26 12Z" fill="#F16F39"/>
</g>
<defs>
<clipPath id="clip0_55_17927">
<rect width="32" height="32" fill="white"/>
</clipPath>
</defs>
</svg>
