<svg width="32" height="32" viewBox="0 0 32 32" fill="none" xmlns="http://www.w3.org/2000/svg">
<g clip-path="url(#clip0_55_17930)">
<path d="M17.38 23.36H14.62C14.421 23.36 14.26 23.199 14.26 23V21.433L13.391 21.07L12.28 22.181C12.213 22.248 12.121 22.286 12.026 22.286C11.93 22.286 11.839 22.248 11.772 22.181L9.82001 20.229C9.67901 20.088 9.67901 19.86 9.82001 19.719L10.928 18.612L10.571 17.741H9.00001C8.80101 17.741 8.64001 17.58 8.64001 17.381V14.621C8.64001 14.422 8.80101 14.261 9.00001 14.261H10.567L10.93 13.392L9.82001 12.28C9.68001 12.139 9.68001 11.912 9.82001 11.771L11.771 9.81901C11.906 9.68301 12.145 9.68301 12.28 9.81901L13.388 10.928L14.26 10.571V9.00001C14.26 8.80101 14.421 8.64001 14.62 8.64001H17.38C17.579 8.64001 17.74 8.80101 17.74 9.00001V10.567L18.608 10.93L19.718 9.81901C19.853 9.68401 20.093 9.68301 20.228 9.81901L22.18 11.771C22.247 11.838 22.285 11.93 22.285 12.025C22.285 12.121 22.247 12.212 22.18 12.279L21.071 13.387L21.428 14.259H23C23.199 14.259 23.36 14.42 23.36 14.619V17.379C23.36 17.578 23.199 17.739 23 17.739H21.433L21.07 18.607L22.181 19.717C22.248 19.784 22.286 19.876 22.286 19.972C22.286 20.068 22.248 20.16 22.181 20.227L20.229 22.179C20.162 22.246 20.07 22.284 19.974 22.284C19.878 22.284 19.786 22.246 19.719 22.179L18.612 21.07L17.741 21.427V23C17.74 23.199 17.579 23.36 17.38 23.36ZM14.98 22.64H17.02V21.188C17.02 21.042 17.109 20.911 17.244 20.855L18.56 20.315C18.694 20.258 18.848 20.291 18.952 20.393L19.974 21.417L21.417 19.974L20.389 18.948C20.286 18.844 20.255 18.689 20.312 18.554L20.862 17.242C20.918 17.108 21.049 17.02 21.194 17.02H22.64V14.98H21.188C21.042 14.98 20.911 14.892 20.855 14.757L20.315 13.441C20.26 13.307 20.291 13.152 20.393 13.05L21.417 12.027L19.974 10.584L18.948 11.611C18.844 11.714 18.689 11.746 18.554 11.689L17.242 11.14C17.108 11.084 17.02 10.953 17.02 10.808V9.36001H14.98V10.812C14.98 10.958 14.892 11.09 14.757 11.145L13.441 11.685C13.306 11.739 13.153 11.709 13.05 11.606L12.027 10.583L10.585 12.026L11.612 13.054C11.715 13.157 11.746 13.313 11.689 13.448L11.14 14.76C11.084 14.894 10.953 14.981 10.808 14.981H9.36001V17.021H10.812C10.958 17.021 11.09 17.11 11.145 17.245L11.685 18.561C11.74 18.696 11.709 18.85 11.606 18.953L10.584 19.975L12.026 21.418L13.054 20.39C13.158 20.286 13.313 20.257 13.448 20.313L14.76 20.863C14.894 20.919 14.981 21.05 14.981 21.195L14.98 22.64ZM16 31.36C11.471 31.36 7.28401 29.427 4.36001 26.022V30H3.64001V24.64H9.00001V25.361H4.74301C7.53601 28.725 11.598 30.64 16 30.64C24.072 30.64 30.64 24.073 30.64 16H31.361C31.36 24.47 24.47 31.36 16 31.36ZM1.36001 16H0.640015C0.640015 7.53001 7.53001 0.640015 16 0.640015C20.529 0.640015 24.716 2.57301 27.64 5.97702V2.00001H28.361V7.36001H23V6.64001H27.257C24.464 3.27501 20.401 1.36001 16 1.36001C7.92701 1.36001 1.36001 7.92701 1.36001 16Z" fill="black"/>
<path fill-rule="evenodd" clip-rule="evenodd" d="M16 18.625C17.4497 18.625 18.625 17.4497 18.625 16C18.625 14.5503 17.4497 13.375 16 13.375C14.5503 13.375 13.375 14.5503 13.375 16C13.375 17.4497 14.5503 18.625 16 18.625ZM16 19.5C17.933 19.5 19.5 17.933 19.5 16C19.5 14.067 17.933 12.5 16 12.5C14.067 12.5 12.5 14.067 12.5 16C12.5 17.933 14.067 19.5 16 19.5Z" fill="#F16F39"/>
</g>
<defs>
<clipPath id="clip0_55_17930">
<rect width="32" height="32" fill="white"/>
</clipPath>
</defs>
</svg>
