<svg width="60" height="61" viewBox="0 0 60 61" fill="none" xmlns="http://www.w3.org/2000/svg">
<g clip-path="url(#clip0_94_9470)">
<path d="M56.2501 58.937H30.0001C29.6269 58.937 29.3251 58.6351 29.3251 58.262V39.512C29.3251 39.1389 29.6269 38.837 30.0001 38.837H36.8251V33.887C36.8251 33.5139 37.1269 33.212 37.5001 33.212H48.7501C49.1232 33.212 49.4251 33.5139 49.4251 33.887V38.837H56.2501C56.6232 38.837 56.9251 39.1389 56.9251 39.512V58.262C56.9251 58.6351 56.6232 58.937 56.2501 58.937ZM30.6751 57.587H55.5751L55.5732 40.187H30.6751V57.587ZM38.1751 38.837H48.0732V34.562H38.1751V38.837ZM15.6751 58.262H14.3251V44.1995C14.3251 37.4645 18.5569 31.6032 24.7988 29.4264C22.3126 27.7257 20.7751 24.887 20.7751 21.8139C20.7751 18.1314 22.9444 14.9439 26.0738 13.4664C26.4413 12.5439 26.6269 11.5689 26.6269 10.5639C26.6269 6.22137 23.0944 2.68699 18.7501 2.68699C14.4057 2.68699 10.8732 6.21949 10.8732 10.5639C10.8732 13.667 12.7107 16.4926 15.5532 17.7564C15.8194 17.8745 15.9788 18.1482 15.9507 18.437C15.9244 18.7239 15.7163 18.9639 15.4351 19.0295C8.95132 20.567 4.42507 26.2914 4.42507 32.9495V47.012H3.07507V32.9495C3.07507 26.2145 7.30695 20.3532 13.5469 18.1764C11.0607 16.4757 9.52507 13.637 9.52507 10.5639C9.52507 5.47699 13.6632 1.33887 18.7501 1.33887C23.8369 1.33887 27.9751 5.47699 27.9751 10.5639C27.9751 11.3551 27.8776 12.1295 27.6807 12.8832C29.1619 12.4989 30.8363 12.4989 32.3176 12.8832C32.1226 12.1314 32.0232 11.3551 32.0232 10.5639C32.0232 5.47699 36.1632 1.33887 41.2501 1.33887C46.3369 1.33887 50.4769 5.47699 50.4769 10.5639C50.4769 13.637 48.9394 16.4776 46.4532 18.1782C52.6951 20.357 56.9269 26.2239 56.9269 32.9664V33.887H55.5751V32.9645C55.5751 26.297 51.0488 20.567 44.5669 19.0295C44.2857 18.962 44.0776 18.7239 44.0513 18.437C44.0232 18.1482 44.1844 17.8745 44.4488 17.7582C47.2894 16.4907 49.1251 13.667 49.1251 10.5639C49.1251 6.22137 45.5926 2.68699 41.2501 2.68699C36.9076 2.68699 33.3751 6.21949 33.3751 10.5639C33.3751 11.5689 33.5607 12.5439 33.9282 13.4664C37.0576 14.9457 39.2269 18.1314 39.2269 21.8139C39.2269 23.5707 38.7301 25.2789 37.7907 26.7507C36.812 28.2901 35.4113 29.4976 33.7463 30.2401L33.1969 29.0082C34.622 28.3745 35.8144 27.3432 36.6526 26.027C37.4532 24.7689 37.8751 23.3139 37.8751 21.8139C37.8751 17.4714 34.3426 13.937 30.0001 13.937C25.6576 13.937 22.1251 17.4695 22.1251 21.8139C22.1251 24.9189 23.9626 27.7426 26.8051 29.0064C27.0694 29.1245 27.2288 29.3982 27.2026 29.687C27.1763 29.9739 26.9682 30.2139 26.6869 30.2795C20.2032 31.817 15.6751 37.5395 15.6751 44.1995V58.262Z" fill="#212529"/>
<circle cx="43.125" cy="48.887" r="4.6875" stroke="#F16F39" stroke-width="1.875"/>
</g>
<defs>
<clipPath id="clip0_94_9470">
<rect width="60" height="60" fill="white" transform="translate(0 0.136963)"/>
</clipPath>
</defs>
</svg>
