<svg width="32" height="32" viewBox="0 0 32 32" fill="none" xmlns="http://www.w3.org/2000/svg">
<g clip-path="url(#clip0_268_3067)">
<path d="M17 28.36H1.00001C0.801015 28.36 0.640015 28.199 0.640015 28V7C0.640015 6.904 0.678015 6.813 0.745015 6.746L6.74501 0.745999C6.81301 0.677999 6.90401 0.639999 7.00001 0.639999H22C22.199 0.639999 22.36 0.800999 22.36 0.999999V13H21.64V1.36H7.36001V7C7.36001 7.199 7.19901 7.36 7.00001 7.36H1.36001V27.64H17V28.36ZM1.86901 6.64H6.64001V1.869L1.86901 6.64ZM16.5 22.36H4.00001C3.80101 22.36 3.64001 22.199 3.64001 22C3.64001 21.801 3.80101 21.64 4.00001 21.64H16.5C16.699 21.64 16.86 21.801 16.86 22C16.86 22.199 16.699 22.36 16.5 22.36ZM16.5 19.36H4.00001C3.80101 19.36 3.64001 19.199 3.64001 19C3.64001 18.801 3.80101 18.64 4.00001 18.64H16.5C16.699 18.64 16.86 18.801 16.86 19C16.86 19.199 16.699 19.36 16.5 19.36ZM16.5 16.36H4.00001C3.80101 16.36 3.64001 16.199 3.64001 16C3.64001 15.801 3.80101 15.64 4.00001 15.64H16.5C16.699 15.64 16.86 15.801 16.86 16C16.86 16.199 16.699 16.36 16.5 16.36ZM19 13.36H4.00001C3.80101 13.36 3.64001 13.199 3.64001 13C3.64001 12.801 3.80101 12.64 4.00001 12.64H19C19.199 12.64 19.36 12.801 19.36 13C19.36 13.199 19.199 13.36 19 13.36ZM25 31.36C21.493 31.36 18.64 28.506 18.64 25V17.777L25 14.597L31.36 17.777V25C31.36 28.507 28.507 31.36 25 31.36ZM19.36 18.223V25C19.36 28.11 21.889 30.64 25 30.64C28.111 30.64 30.64 28.111 30.64 25V18.223L25 15.402L19.36 18.223Z" fill="black"/>
<path d="M22.36 24L24.615 26.255L28.87 22.001L28.36 21.492L24.615 25.237L22.87 23.491L22.36 24Z" fill="black"/>
<path fill-rule="evenodd" clip-rule="evenodd" d="M16.5 8.6C17.6598 8.6 18.6 7.6598 18.6 6.5C18.6 5.3402 17.6598 4.4 16.5 4.4C15.3402 4.4 14.4 5.3402 14.4 6.5C14.4 7.6598 15.3402 8.6 16.5 8.6ZM16.5 10C18.433 10 20 8.433 20 6.5C20 4.567 18.433 3 16.5 3C14.567 3 13 4.567 13 6.5C13 8.433 14.567 10 16.5 10Z" fill="#F16F39"/>
</g>
<defs>
<clipPath id="clip0_268_3067">
<rect width="32" height="32" fill="white"/>
</clipPath>
</defs>
</svg>
