<svg width="32" height="32" viewBox="0 0 32 32" fill="none" xmlns="http://www.w3.org/2000/svg">
<g clip-path="url(#clip0_279_1195)">
<path d="M29.13 29.535L1.74499 2.14901L2.25498 1.64001L29.64 29.026L29.64 24.895L30.36 24.895L30.36 30.255L25 30.255L25 29.535L29.13 29.535Z" fill="black"/>
<path d="M31 10.36C31.199 10.36 31.36 10.199 31.36 10V2.00001C31.36 1.80101 31.199 1.64001 31 1.64001H18C17.801 1.64001 17.64 1.80101 17.64 2.00001V10C17.64 10.199 17.801 10.36 18 10.36H31ZM18.36 8.40301C18.975 8.54101 19.459 9.02501 19.597 9.64001H18.36V8.40301ZM20.323 2.36001H28.676C28.833 3.37201 29.628 4.16701 30.64 4.32401V7.67701C29.628 7.83401 28.833 8.62901 28.676 9.64101H20.323C20.167 8.62801 19.372 7.83301 18.36 7.67701V4.32301C19.372 4.16701 20.167 3.37201 20.323 2.36001ZM29.403 9.64001C29.542 9.02501 30.026 8.54101 30.641 8.40201V9.64001H29.403ZM30.64 3.59701C30.025 3.45801 29.541 2.97401 29.402 2.35901H30.64V3.59701ZM19.597 2.36001C19.459 2.97501 18.975 3.45901 18.36 3.59701V2.36001H19.597ZM18 11.64H31V12.36H18V11.64ZM31 14.36H18V13.64H31V14.36ZM24.5 8.36001C25.801 8.36001 26.86 7.30101 26.86 6.00001C26.86 4.69901 25.801 3.64001 24.5 3.64001C23.199 3.64001 22.14 4.69901 22.14 6.00001C22.14 7.30101 23.199 8.36001 24.5 8.36001ZM24.5 4.36001C25.404 4.36001 26.14 5.09601 26.14 6.00001C26.14 6.90401 25.404 7.64001 24.5 7.64001C23.596 7.64001 22.86 6.90401 22.86 6.00001C22.86 5.09601 23.596 4.36001 24.5 4.36001Z" fill="black"/>
<path fill-rule="evenodd" clip-rule="evenodd" d="M8 28C10.2091 28 12 26.2091 12 24C12 21.7909 10.2091 20 8 20C5.79086 20 4 21.7909 4 24C4 26.2091 5.79086 28 8 28ZM8 30C11.3137 30 14 27.3137 14 24C14 20.6863 11.3137 18 8 18C4.68629 18 2 20.6863 2 24C2 27.3137 4.68629 30 8 30Z" fill="#F16F39"/>
</g>
<defs>
<clipPath id="clip0_279_1195">
<rect width="32" height="32" fill="white"/>
</clipPath>
</defs>
</svg>
