<svg width="32" height="32" viewBox="0 0 32 32" fill="none" xmlns="http://www.w3.org/2000/svg">
<g clip-path="url(#clip0_55_17928)">
<path d="M25.255 31.255L24.745 30.745L28.131 27.36H16C8.63301 27.36 2.64001 21.367 2.64001 14C2.64001 6.63301 8.63301 0.640015 16 0.640015C23.367 0.640015 29.36 6.63301 29.36 14H28.64C28.64 7.03001 22.97 1.36001 16 1.36001C9.03001 1.36001 3.36001 7.03001 3.36001 14C3.36001 20.97 9.03001 26.64 16 26.64H28.131L24.745 23.255L25.255 22.745L29.509 27L25.255 31.255ZM17.839 22.36H14.162V20.302L13.2 19.9L11.743 21.357L9.14201 18.757L10.597 17.303L10.201 16.338H8.14001V12.661H10.196L10.599 11.699L9.14201 10.242L11.743 7.64201L13.197 9.09601L14.162 8.70001V6.64001H17.839V8.69601L18.801 9.09901L20.258 7.64201L22.859 10.242L21.405 11.696L21.801 12.661H23.862V16.338H21.805L21.403 17.3L22.86 18.757L20.259 21.357L18.805 19.903L17.839 20.3V22.36ZM14.881 21.64H17.118V19.818L18.973 19.056L20.257 20.34L21.84 18.758L20.549 17.469L21.324 15.619H23.138V13.382H21.316L20.555 11.527L21.839 10.243L20.256 8.66101L18.969 9.95001L17.118 9.17601V7.36001H14.881V9.18401L13.026 9.94401L11.742 8.66101L10.16 10.243L11.449 11.532L10.675 13.382H8.86001V15.619H10.683L11.444 17.474L10.16 18.758L11.742 20.34L13.031 19.051L14.881 19.824V21.64Z" fill="black"/>
<path fill-rule="evenodd" clip-rule="evenodd" d="M16 16.5C17.1046 16.5 18 15.6046 18 14.5C18 13.3954 17.1046 12.5 16 12.5C14.8954 12.5 14 13.3954 14 14.5C14 15.6046 14.8954 16.5 16 16.5ZM16 17.5C17.6569 17.5 19 16.1569 19 14.5C19 12.8431 17.6569 11.5 16 11.5C14.3431 11.5 13 12.8431 13 14.5C13 16.1569 14.3431 17.5 16 17.5Z" fill="#F16F39"/>
</g>
<defs>
<clipPath id="clip0_55_17928">
<rect width="32" height="32" fill="white"/>
</clipPath>
</defs>
</svg>
