<svg width="60" height="60" viewBox="0 0 60 60" fill="none" xmlns="http://www.w3.org/2000/svg">
<g clip-path="url(#clip0_94_9495)">
<path d="M54.3751 6.56221C54.3751 7.07971 53.9551 7.49971 53.4376 7.49971C52.9201 7.49971 52.5001 7.07971 52.5001 6.56221C52.5001 6.04471 52.9201 5.62471 53.4376 5.62471C53.9551 5.62471 54.3751 6.04471 54.3751 6.56221ZM49.6876 5.62471C49.1701 5.62471 48.7501 6.04471 48.7501 6.56221C48.7501 7.07971 49.1701 7.49971 49.6876 7.49971C50.2051 7.49971 50.6251 7.07971 50.6251 6.56221C50.6251 6.04471 50.2051 5.62471 49.6876 5.62471ZM45.9376 5.62471C45.4201 5.62471 45.0001 6.04471 45.0001 6.56221C45.0001 7.07971 45.4201 7.49971 45.9376 7.49971C46.4551 7.49971 46.8751 7.07971 46.8751 6.56221C46.8751 6.04471 46.4551 5.62471 45.9376 5.62471ZM58.1251 56.9247H1.87507C1.50195 56.9247 1.20007 56.6228 1.20007 56.2497V3.74971C1.20007 3.37658 1.50195 3.07471 1.87507 3.07471H58.1251C58.4982 3.07471 58.8001 3.37658 58.8001 3.74971V56.2497C58.8001 56.6228 58.4982 56.9247 58.1251 56.9247ZM2.55007 55.5747H57.4501V10.0497H2.55007V55.5747ZM2.55007 8.69971H57.4501V4.42471H2.55007V8.69971ZM32.8126 47.5497H27.1876C26.8144 47.5497 26.5126 47.2478 26.5126 46.8747V43.2653C25.7851 43.046 25.0819 42.7535 24.4107 42.3953L21.8588 44.9472C21.7332 45.0728 21.5607 45.1441 21.3826 45.1441C21.2026 45.1441 21.0319 45.0728 20.9063 44.9472L16.9294 40.9685C16.6651 40.7041 16.6651 40.2766 16.9294 40.0122L19.4794 37.4641C19.1232 36.7947 18.8326 36.0897 18.6094 35.3622H15.0001C14.6269 35.3622 14.3251 35.0603 14.3251 34.6872V29.0622C14.3251 28.6891 14.6269 28.3872 15.0001 28.3872H18.6076C18.8307 27.6578 19.1213 26.9547 19.4776 26.2835L16.9276 23.7335C16.6632 23.4691 16.6632 23.0435 16.9276 22.7791L20.9044 18.8003C21.1576 18.5453 21.6057 18.5453 21.8588 18.8003L24.4107 21.3503C25.0801 20.9941 25.7832 20.7035 26.5126 20.4803V16.8747C26.5126 16.5016 26.8144 16.1997 27.1876 16.1997H32.8126C33.1857 16.1997 33.4876 16.5016 33.4876 16.8747V20.4822C34.2151 20.7053 34.9201 20.996 35.5895 21.3522L38.1376 18.8022C38.3907 18.5472 38.8369 18.5472 39.0938 18.8022L43.0726 22.781C43.1982 22.9066 43.2694 23.0791 43.2694 23.2572C43.2694 23.4353 43.1982 23.6078 43.0726 23.7335L40.5207 26.2835C40.8769 26.951 41.1694 27.656 41.3926 28.3872H45.0001C45.3732 28.3872 45.6751 28.6891 45.6751 29.0622V34.6872C45.6751 35.0603 45.3732 35.3622 45.0001 35.3622H41.3926C41.1694 36.0916 40.8788 36.7947 40.5207 37.4641L43.0726 40.0122C43.1982 40.1378 43.2694 40.3103 43.2694 40.4903C43.2694 40.6703 43.1982 40.8428 43.0726 40.9685L39.0938 44.9472C38.9682 45.0728 38.7957 45.1441 38.6157 45.1441C38.4357 45.1441 38.2632 45.0728 38.1376 44.9472L35.5895 42.3953C34.9163 42.7516 34.2132 43.046 33.4876 43.2653V46.8747C33.4876 47.2478 33.1857 47.5497 32.8126 47.5497ZM27.8626 46.1997H32.1376V42.7553C32.1376 42.4478 32.3457 42.1778 32.6457 42.101C33.5982 41.8572 34.5113 41.4785 35.3644 40.976C35.6288 40.8166 35.9663 40.8597 36.1857 41.0791L38.6194 43.5166L41.6438 40.4922L39.2063 38.0585C38.9888 37.841 38.9457 37.5016 39.1032 37.2372C39.6038 36.3935 39.9826 35.4785 40.2301 34.5203C40.3069 34.2222 40.577 34.0122 40.8844 34.0122H44.327V29.7372H40.8844C40.577 29.7372 40.3069 29.5291 40.2301 29.231C39.9826 28.271 39.6038 27.356 39.1032 26.5141C38.9457 26.2478 38.9869 25.9103 39.2063 25.6928L41.6438 23.2572L38.6194 20.2347L36.1857 22.6685C35.9682 22.8841 35.6288 22.9291 35.3644 22.7735C34.5169 22.2728 33.6038 21.896 32.6457 21.6485C32.3476 21.5716 32.1376 21.3016 32.1376 20.9941V17.5497H27.8626V20.9941C27.8626 21.3016 27.6544 21.5716 27.3563 21.6485C26.3982 21.896 25.4832 22.2747 24.6376 22.7735C24.3713 22.931 24.0357 22.8878 23.8163 22.6685L21.3807 20.2347L18.3582 23.2572L20.7919 25.6928C21.0094 25.9103 21.0526 26.2478 20.8969 26.5141C20.3982 27.3597 20.0194 28.2728 19.7719 29.2328C19.6951 29.531 19.4251 29.7391 19.1176 29.7391H15.6751V34.0141H19.1194C19.4269 34.0141 19.6969 34.2222 19.7738 34.5222C20.0213 35.4803 20.3982 36.3935 20.8988 37.241C21.0544 37.5053 21.0132 37.8428 20.7938 38.0622L18.3601 40.496L21.3826 43.5203L23.8182 41.0828C24.0357 40.8653 24.3713 40.8203 24.6394 40.9797C25.4888 41.4822 26.4038 41.861 27.3563 42.1047C27.6544 42.1816 27.8644 42.4516 27.8644 42.7591L27.8626 46.1997ZM30.0001 39.1122C26.0101 39.1122 22.7626 35.8647 22.7626 31.8747C22.7626 27.8847 26.0082 24.6372 30.0001 24.6372C33.9901 24.6372 37.2376 27.8828 37.2376 31.8747C37.2376 35.8647 33.9901 39.1122 30.0001 39.1122ZM30.0001 25.9872C26.7544 25.9872 24.1126 28.6291 24.1126 31.8747C24.1126 35.1203 26.7544 37.7622 30.0001 37.7622C33.2457 37.7622 35.8876 35.1222 35.8876 31.8747C35.8876 28.6272 33.2457 25.9872 30.0001 25.9872Z" fill="#212529"/>
<circle cx="30" cy="31.875" r="6.5625" stroke="#F16F39" stroke-width="1.875"/>
</g>
<defs>
<clipPath id="clip0_94_9495">
<rect width="60" height="60" fill="white"/>
</clipPath>
</defs>
</svg>
