<svg width="32" height="32" viewBox="0 0 32 32" fill="none" xmlns="http://www.w3.org/2000/svg">
<g clip-path="url(#clip0_256_2731)">
<path d="M28.811 26.812L24.481 24.312L24.84 23.689L29.17 26.189L28.811 26.812ZM3.19 26.812L2.83 26.189L7.16 23.689L7.52 24.312L3.19 26.812ZM31 19.36H26V18.64H31V19.36ZM6 19.36H1V18.64H6V19.36ZM18.7486 17L28.821 11.189L29.18 11.813L19 17.6853L18.7486 17ZM7.16 14.312L2.83 11.812L3.19 11.188L7.52 13.688L7.16 14.312ZM21.312 10.52L20.689 10.16L23.189 5.83L23.812 6.19L21.312 10.52ZM10.688 10.52L8.188 6.19L8.812 5.83L11.312 10.16L10.688 10.52ZM16.36 9H15.64V4H16.36V9Z" fill="black"/>
<path fill-rule="evenodd" clip-rule="evenodd" d="M16 21.6667C17.4728 21.6667 18.6667 20.4728 18.6667 19C18.6667 17.5272 17.4728 16.3333 16 16.3333C14.5272 16.3333 13.3333 17.5272 13.3333 19C13.3333 20.4728 14.5272 21.6667 16 21.6667ZM16 23C18.2091 23 20 21.2091 20 19C20 16.7909 18.2091 15 16 15C13.7909 15 12 16.7909 12 19C12 21.2091 13.7909 23 16 23Z" fill="#F16F39"/>
</g>
<defs>
<clipPath id="clip0_256_2731">
<rect width="32" height="32" fill="white"/>
</clipPath>
</defs>
</svg>
