<svg width="32" height="32" viewBox="0 0 32 32" fill="none" xmlns="http://www.w3.org/2000/svg">
<g clip-path="url(#clip0_241_2525)">
<path d="M10.746 5.746L12.491 4L10.745 2.254L11.254 1.745L13 3.491L14.746 1.745L15.255 2.254L13.509 4L15.255 5.746L14.746 6.255L13 4.509L11.254 6.255L10.746 5.746ZM17.745 15.746L19.491 14L17.745 12.254L18.255 11.745L20 13.491L21.745 11.746L22.255 12.255L20.509 14L22.255 15.746L21.745 16.255L20 14.509L18.255 16.254L17.745 15.746ZM27 10.491L28.745 8.746L29.255 9.255L27.509 11L29.255 12.746L28.745 13.255L27 11.509L25.255 13.254L24.745 12.745L26.491 11L24.745 9.254L25.255 8.745L27 10.491ZM10 27.64H16V28.361H10C9.946 28.361 4.64 28.299 4.64 23.001V5.868L3.255 7.254L2.745 6.745L4.997 4.49L7.254 6.744L6.745 7.254L5.36 5.87V23C5.36 27.587 9.811 27.64 10 27.64ZM24.35 2.859L24.36 4.998C24.36 7.658 22.162 8.36 21 8.36H17C13.416 8.36 13.36 11.852 13.36 12.001V17.001H12.64V12.001C12.64 11.958 12.69 7.641 17 7.641H21C21.106 7.641 23.64 7.597 23.64 5.001L23.63 2.881L22.256 4.255L21.746 3.746L24 1.491L26.255 3.746L25.745 4.255L24.35 2.859Z" fill="black"/>
<path fill-rule="evenodd" clip-rule="evenodd" d="M13 22.6667C13.9205 22.6667 14.6667 21.9205 14.6667 21C14.6667 20.0795 13.9205 19.3333 13 19.3333C12.0795 19.3333 11.3333 20.0795 11.3333 21C11.3333 21.9205 12.0795 22.6667 13 22.6667ZM13 23.5C14.3807 23.5 15.5 22.3807 15.5 21C15.5 19.6193 14.3807 18.5 13 18.5C11.6193 18.5 10.5 19.6193 10.5 21C10.5 22.3807 11.6193 23.5 13 23.5Z" fill="#F16F39"/>
<path fill-rule="evenodd" clip-rule="evenodd" d="M20 22.6667C20.9205 22.6667 21.6667 21.9205 21.6667 21C21.6667 20.0795 20.9205 19.3333 20 19.3333C19.0795 19.3333 18.3333 20.0795 18.3333 21C18.3333 21.9205 19.0795 22.6667 20 22.6667ZM20 23.5C21.3807 23.5 22.5 22.3807 22.5 21C22.5 19.6193 21.3807 18.5 20 18.5C18.6193 18.5 17.5 19.6193 17.5 21C17.5 22.3807 18.6193 23.5 20 23.5Z" fill="#F16F39"/>
<path fill-rule="evenodd" clip-rule="evenodd" d="M20 29.6667C20.9205 29.6667 21.6667 28.9205 21.6667 28C21.6667 27.0795 20.9205 26.3333 20 26.3333C19.0795 26.3333 18.3333 27.0795 18.3333 28C18.3333 28.9205 19.0795 29.6667 20 29.6667ZM20 30.5C21.3807 30.5 22.5 29.3807 22.5 28C22.5 26.6193 21.3807 25.5 20 25.5C18.6193 25.5 17.5 26.6193 17.5 28C17.5 29.3807 18.6193 30.5 20 30.5Z" fill="#F16F39"/>
<path fill-rule="evenodd" clip-rule="evenodd" d="M27 22.6667C27.9205 22.6667 28.6667 21.9205 28.6667 21C28.6667 20.0795 27.9205 19.3333 27 19.3333C26.0795 19.3333 25.3333 20.0795 25.3333 21C25.3333 21.9205 26.0795 22.6667 27 22.6667ZM27 23.5C28.3807 23.5 29.5 22.3807 29.5 21C29.5 19.6193 28.3807 18.5 27 18.5C25.6193 18.5 24.5 19.6193 24.5 21C24.5 22.3807 25.6193 23.5 27 23.5Z" fill="#F16F39"/>
</g>
<defs>
<clipPath id="clip0_241_2525">
<rect width="32" height="32" fill="white"/>
</clipPath>
</defs>
</svg>
