<svg width="32" height="32" viewBox="0 0 32 32" fill="none" xmlns="http://www.w3.org/2000/svg">
<g clip-path="url(#clip0_263_2899)">
<path d="M16 30.36C13.395 30.36 10.907 29.648 8.80601 28.302L9.19501 27.697C11.18 28.968 13.533 29.639 16.001 29.639C18.405 29.639 20.823 28.949 22.809 27.695L23.194 28.304C21.093 29.63 18.539 30.36 16 30.36ZM8.00001 26.36H1.00001C0.871012 26.36 0.752012 26.291 0.688012 26.179C0.624012 26.067 0.624012 25.929 0.689012 25.818L4.18901 19.818C4.31801 19.597 4.68201 19.597 4.81101 19.818L8.31101 25.818C8.37601 25.929 8.37601 26.067 8.31201 26.179C8.24801 26.291 8.12901 26.36 8.00001 26.36ZM1.62701 25.64H7.37301L4.50001 20.715L1.62701 25.64ZM21.36 23H20.64V21.317C20.64 19.157 19.174 17.301 17.075 16.804C16.925 16.769 16.814 16.641 16.8 16.488C16.786 16.334 16.871 16.188 17.012 16.125C17.911 15.725 18.491 14.832 18.491 13.85C18.491 12.477 17.374 11.36 16.001 11.36C14.628 11.36 13.511 12.477 13.511 13.85C13.511 14.832 14.092 15.725 14.991 16.125C15.132 16.188 15.217 16.334 15.203 16.487C15.189 16.641 15.078 16.769 14.928 16.804C12.828 17.302 11.362 19.157 11.362 21.317V23H10.642V21.317C10.642 19.096 11.984 17.155 13.989 16.349C13.244 15.748 12.792 14.834 12.792 13.85C12.792 12.08 14.232 10.64 16.002 10.64C17.773 10.64 19.213 12.08 19.213 13.85C19.213 14.834 18.761 15.748 18.016 16.349C20.021 17.155 21.363 19.097 21.363 21.317V23H21.36ZM29.321 18.027L28.602 17.972C28.627 17.651 28.639 17.326 28.639 16.999C28.639 12.291 26.032 8.006 21.833 5.818L22.165 5.179C26.604 7.493 29.36 12.022 29.36 17C29.36 17.347 29.347 17.688 29.321 18.027ZM2.67901 18.027C2.65301 17.688 2.64001 17.347 2.64001 17C2.64001 12 5.39601 7.458 9.83301 5.145L10.166 5.784C5.96801 7.972 3.36001 12.27 3.36001 17C3.36001 17.327 3.37301 17.651 3.39701 17.973L2.67901 18.027ZM19 7.36H13C12.801 7.36 12.64 7.199 12.64 7V0.999999C12.64 0.800999 12.801 0.639999 13 0.639999H19C19.199 0.639999 19.36 0.800999 19.36 0.999999V7C19.36 7.199 19.199 7.36 19 7.36ZM13.36 6.64H18.64V1.36H13.36V6.64Z" fill="black"/>
<path fill-rule="evenodd" clip-rule="evenodd" d="M28 25.6667C29.4728 25.6667 30.6667 24.4728 30.6667 23C30.6667 21.5272 29.4728 20.3333 28 20.3333C26.5272 20.3333 25.3333 21.5272 25.3333 23C25.3333 24.4728 26.5272 25.6667 28 25.6667ZM28 27C30.2091 27 32 25.2091 32 23C32 20.7909 30.2091 19 28 19C25.7909 19 24 20.7909 24 23C24 25.2091 25.7909 27 28 27Z" fill="#F16F39"/>
</g>
<defs>
<clipPath id="clip0_263_2899">
<rect width="32" height="32" fill="white"/>
</clipPath>
</defs>
</svg>
