<svg width="32" height="32" viewBox="0 0 32 32" fill="none" xmlns="http://www.w3.org/2000/svg">
<g clip-path="url(#clip0_252_2684)">
<path d="M31 29.36H10C9.80101 29.36 9.64001 29.199 9.64001 29V24.354C4.64501 24.164 0.640015 20.041 0.640015 15C0.640015 9.959 4.64501 5.837 9.64001 5.647V3C9.64001 2.801 9.80101 2.64 10 2.64H31C31.199 2.64 31.36 2.801 31.36 3V29C31.36 29.199 31.199 29.36 31 29.36ZM28.36 28.64H30.639V3.36H10.36V5.647C15.355 5.837 19.36 9.959 19.36 15C19.36 20.04 15.355 24.163 10.36 24.354V28.64H17.64V23C17.64 22.801 17.801 22.64 18 22.64H22C22.199 22.64 22.36 22.801 22.36 23V28.64H23.639V16C23.639 15.801 23.8 15.64 23.999 15.64H27.999C28.198 15.64 28.359 15.801 28.359 16L28.36 28.64ZM24.36 28.64H27.639V16.36H24.36V28.64ZM18.36 28.64H21.639V23.36H18.36V28.64ZM3.74901 20.959C5.32401 22.609 7.54401 23.64 10 23.64C12.456 23.64 14.677 22.61 16.251 20.958C15.21 19.176 13.387 17.891 11.327 17.501C11.167 17.471 11.048 17.338 11.035 17.176C11.022 17.014 11.119 16.864 11.272 16.809C12.8 16.262 13.827 14.813 13.827 13.205C13.827 11.085 12.102 9.361 9.98301 9.361C7.86401 9.361 6.13901 11.086 6.13901 13.205C6.13901 14.814 7.16501 16.263 8.69301 16.809C8.84601 16.864 8.94301 17.014 8.93001 17.176C8.91701 17.338 8.79801 17.471 8.63801 17.501C6.57001 17.893 4.80101 19.146 3.74901 20.959ZM12.427 17.041C14.21 17.618 15.76 18.814 16.748 20.39C17.931 18.911 18.639 17.036 18.639 15C18.639 10.236 14.764 6.36 9.99901 6.36C5.23401 6.36 1.36001 10.236 1.36001 15C1.36001 17.036 2.06801 18.91 3.25201 20.39C4.24601 18.791 5.75901 17.613 7.53801 17.04C6.24101 16.215 5.42001 14.774 5.42001 13.204C5.42001 10.687 7.46701 8.64 9.98401 8.64C12.501 8.64 14.548 10.687 14.548 13.204C14.547 14.774 13.725 16.216 12.427 17.041Z" fill="black"/>
<path fill-rule="evenodd" clip-rule="evenodd" d="M26 10.75C27.1046 10.75 28 9.85457 28 8.75C28 7.64543 27.1046 6.75 26 6.75C24.8954 6.75 24 7.64543 24 8.75C24 9.85457 24.8954 10.75 26 10.75ZM26 11.75C27.6569 11.75 29 10.4069 29 8.75C29 7.09315 27.6569 5.75 26 5.75C24.3431 5.75 23 7.09315 23 8.75C23 10.4069 24.3431 11.75 26 11.75Z" fill="#F16F39"/>
</g>
<defs>
<clipPath id="clip0_252_2684">
<rect width="32" height="32" fill="white"/>
</clipPath>
</defs>
</svg>
