<svg width="32" height="32" viewBox="0 0 32 32" fill="none" xmlns="http://www.w3.org/2000/svg">
<g clip-path="url(#clip0_252_2670)">
<path d="M29 2.5C29 2.776 28.776 3 28.5 3C28.224 3 28 2.776 28 2.5C28 2.224 28.224 2 28.5 2C28.776 2 29 2.224 29 2.5ZM26.5 2C26.224 2 26 2.224 26 2.5C26 2.776 26.224 3 26.5 3C26.776 3 27 2.776 27 2.5C27 2.224 26.776 2 26.5 2ZM24.5 2C24.224 2 24 2.224 24 2.5C24 2.776 24.224 3 24.5 3C24.776 3 25 2.776 25 2.5C25 2.224 24.776 2 24.5 2ZM31 31.36H1.00001C0.801015 31.36 0.640015 31.199 0.640015 31V0.999999C0.640015 0.800999 0.801015 0.639999 1.00001 0.639999H31C31.199 0.639999 31.36 0.800999 31.36 0.999999V31C31.36 31.199 31.199 31.36 31 31.36ZM27.36 30.64H30.639V4.36H1.36001V30.64H4.64001V30C4.64001 25.288 7.92601 21.015 12.572 19.522C10.718 18.354 9.56201 16.304 9.56201 14.077C9.56201 10.527 12.45 7.639 15.999 7.639C19.549 7.639 22.437 10.527 22.437 14.077C22.437 16.305 21.281 18.354 19.427 19.522C24.073 21.015 27.36 25.289 27.36 30V30.64ZM5.35901 30.64H26.639V30C26.639 25.327 23.166 21.112 18.382 19.979C18.232 19.943 18.121 19.816 18.107 19.662C18.092 19.509 18.178 19.363 18.319 19.3C20.382 18.382 21.715 16.332 21.715 14.078C21.715 10.925 19.151 8.36 15.998 8.36C12.845 8.36 10.281 10.925 10.281 14.078C10.281 16.332 11.614 18.382 13.678 19.3C13.819 19.363 13.904 19.509 13.89 19.662C13.876 19.816 13.765 19.943 13.615 19.979C8.83201 21.112 5.35901 25.326 5.35901 30V30.64ZM1.36001 3.64H30.64V1.36H1.36001V3.64Z" fill="black"/>
<path fill-rule="evenodd" clip-rule="evenodd" d="M16 28.6667C17.4728 28.6667 18.6667 27.4728 18.6667 26C18.6667 24.5272 17.4728 23.3333 16 23.3333C14.5272 23.3333 13.3333 24.5272 13.3333 26C13.3333 27.4728 14.5272 28.6667 16 28.6667ZM16 30C18.2091 30 20 28.2091 20 26C20 23.7909 18.2091 22 16 22C13.7909 22 12 23.7909 12 26C12 28.2091 13.7909 30 16 30Z" fill="#F16F39"/>
</g>
<defs>
<clipPath id="clip0_252_2670">
<rect width="32" height="32" fill="white"/>
</clipPath>
</defs>
</svg>
