<svg width="150" height="22" viewBox="0 0 150 22" fill="none" xmlns="http://www.w3.org/2000/svg">
<g clip-path="url(#clip0_50_12501)">
<path d="M110.438 0.4375H108.188V21.1875H110.5V14L112.312 12.375L121.188 21.1875H124.312L114 10.625L124 0.4375H120.938L110.438 10.75V0.4375Z" fill="#58585A"/>
<path d="M149.938 21.1875H137.688V0.4375H149.938V2.6875H140V9.5625H147.875V11.8125H140V19.0625H149.938V21.1875Z" fill="#58585A"/>
<path d="M81.625 19.4375C83.935 19.4375 86.245 19.4375 88.625 19.4375C88.625 20.18 88.625 20.9225 88.625 21.6875C86.315 21.6875 84.005 21.6875 81.625 21.6875C81.625 20.945 81.625 20.2025 81.625 19.4375Z" fill="#58585A"/>
<path fill-rule="evenodd" clip-rule="evenodd" d="M85.0625 17.3125C89.7224 17.3125 93.5 13.5349 93.5 8.875C93.5 4.2151 89.7224 0.4375 85.0625 0.4375C80.4026 0.4375 76.625 4.2151 76.625 8.875C76.625 13.5349 80.4026 17.3125 85.0625 17.3125ZM85.0625 14.9375C88.4107 14.9375 91.125 12.2232 91.125 8.875C91.125 5.52677 88.4107 2.8125 85.0625 2.8125C81.7143 2.8125 79 5.52677 79 8.875C79 12.2232 81.7143 14.9375 85.0625 14.9375Z" fill="#F16F39"/>
<path d="M50.3125 0.5H47.75L56.3125 21.5L64.9375 0.5H62.375L56.3125 15.4375L50.3125 0.5Z" fill="#58585A"/>
<path d="M32.125 15.8125L17.25 0.3125V21.125H19.4375V5.75L34.3125 21.625V0.5H32.125V15.8125Z" fill="#58585A"/>
<path d="M2.25 0.4375H0V21.1875H2.25V0.4375Z" fill="#58585A"/>
</g>
<defs>
<clipPath id="clip0_50_12501">
<rect width="150" height="21.625" fill="white" transform="translate(0 0.1875)"/>
</clipPath>
</defs>
</svg>
